<svg xmlns="http://www.w3.org/2000/svg" width="1100" height="760" viewBox="0 0 1100 760"><title>BONE TUI render fixture — synthetic data, not a real model run</title><rect width="100%" height="100%" fill="#111318"/><text x="10" y="20" fill="#a0a4ad" font-size="12" font-family="monospace">Render fixture · synthetic data · 120 columns</text><g font-family="'SFMono-Regular', 'Noto Sans Mono CJK SC', monospace" font-size="14"><text x="19" y="44" fill="#dcdfe5" font-weight="bold">B</text><text x="28" y="44" fill="#dcdfe5" font-weight="bold">O</text><text x="37" y="44" fill="#dcdfe5" font-weight="bold">N</text><text x="46" y="44" fill="#dcdfe5" font-weight="bold">E</text><text x="73" y="44" fill="#dcdfe5" font-weight="bold">·</text><text x="91" y="44" fill="#dcdfe5" font-weight="bold">p</text><text x="100" y="44" fill="#dcdfe5" font-weight="bold">r</text><text x="109" y="44" fill="#dcdfe5" font-weight="bold">o</text><text x="118" y="44" fill="#dcdfe5" font-weight="bold">v</text><text x="127" y="44" fill="#dcdfe5" font-weight="bold">i</text><text x="136" y="44" fill="#dcdfe5" font-weight="bold">d</text><text x="145" y="44" fill="#dcdfe5" font-weight="bold">e</text><text x="154" y="44" fill="#dcdfe5" font-weight="bold">r</text><text x="163" y="44" fill="#dcdfe5" font-weight="bold">/</text><text x="172" y="44" fill="#dcdfe5" font-weight="bold">m</text><text x="181" y="44" fill="#dcdfe5" font-weight="bold">o</text><text x="190" y="44" fill="#dcdfe5" font-weight="bold">d</text><text x="199" y="44" fill="#dcdfe5" font-weight="bold">e</text><text x="208" y="44" fill="#dcdfe5" font-weight="bold">l</text><text x="226" y="44" fill="#dcdfe5" font-weight="bold">·</text><text x="244" y="44" fill="#dcdfe5" font-weight="bold">工</text><text x="262" y="44" fill="#dcdfe5" font-weight="bold">作</text><text x="280" y="44" fill="#dcdfe5" font-weight="bold">中</text><text x="19" y="64" fill="#dcdfe5" font-weight="bold">你</text><text x="19" y="84" fill="#dcdfe5">给</text><text x="37" y="84" fill="#dcdfe5">这</text><text x="55" y="84" fill="#dcdfe5">个</text><text x="82" y="84" fill="#dcdfe5">C</text><text x="91" y="84" fill="#dcdfe5">L</text><text x="100" y="84" fill="#dcdfe5">I</text><text x="118" y="84" fill="#dcdfe5">增</text><text x="136" y="84" fill="#dcdfe5">加</text><text x="154" y="84" fill="#dcdfe5">错</text><text x="172" y="84" fill="#dcdfe5">误</text><text x="190" y="84" fill="#dcdfe5">恢</text><text x="208" y="84" fill="#dcdfe5">复</text><text x="226" y="84" fill="#dcdfe5">，</text><text x="244" y="84" fill="#dcdfe5">并</text><text x="262" y="84" fill="#dcdfe5">保</text><text x="280" y="84" fill="#dcdfe5">留</text><text x="307" y="84" fill="#dcdfe5">U</text><text x="316" y="84" fill="#dcdfe5">n</text><text x="325" y="84" fill="#dcdfe5">i</text><text x="334" y="84" fill="#dcdfe5">c</text><text x="343" y="84" fill="#dcdfe5">o</text><text x="352" y="84" fill="#dcdfe5">d</text><text x="361" y="84" fill="#dcdfe5">e</text><text x="379" y="84" fill="#dcdfe5">输</text><text x="397" y="84" fill="#dcdfe5">入</text><text x="424" y="84" fill="#dcdfe5">👩‍💻</text><text x="442" y="84" fill="#dcdfe5">。</text><text x="19" y="124" fill="#dcdfe5" font-weight="bold">A</text><text x="28" y="124" fill="#dcdfe5" font-weight="bold">g</text><text x="37" y="124" fill="#dcdfe5" font-weight="bold">e</text><text x="46" y="124" fill="#dcdfe5" font-weight="bold">n</text><text x="55" y="124" fill="#dcdfe5" font-weight="bold">t</text><text x="73" y="124" fill="#dcdfe5" font-weight="bold">·</text><text x="91" y="124" fill="#dcdfe5" font-weight="bold">进</text><text x="109" y="124" fill="#dcdfe5" font-weight="bold">度</text><text x="19" y="144" fill="#dcdfe5" font-weight="bold">实</text><text x="37" y="144" fill="#dcdfe5" font-weight="bold">现</text><text x="55" y="144" fill="#dcdfe5" font-weight="bold">计</text><text x="73" y="144" fill="#dcdfe5" font-weight="bold">划</text><text x="19" y="164" fill="#dcdfe5">-</text><text x="37" y="164" fill="#dcdfe5">检</text><text x="55" y="164" fill="#dcdfe5">查</text><text x="73" y="164" fill="#dcdfe5">状</text><text x="91" y="164" fill="#dcdfe5">态</text><text x="109" y="164" fill="#dcdfe5">持</text><text x="127" y="164" fill="#dcdfe5">久</text><text x="145" y="164" fill="#dcdfe5">化</text><text x="163" y="164" fill="#dcdfe5">与</text><text x="181" y="164" fill="#dcdfe5">输</text><text x="199" y="164" fill="#dcdfe5">入</text><text x="217" y="164" fill="#dcdfe5">边</text><text x="235" y="164" fill="#dcdfe5">界</text><text x="19" y="184" fill="#dcdfe5">-</text><text x="37" y="184" fill="#dcdfe5">修</text><text x="55" y="184" fill="#dcdfe5">复</text><text x="73" y="184" fill="#dcdfe5">失</text><text x="91" y="184" fill="#dcdfe5">败</text><text x="109" y="184" fill="#dcdfe5">恢</text><text x="127" y="184" fill="#dcdfe5">复</text><text x="145" y="184" fill="#dcdfe5">，</text><text x="163" y="184" fill="#dcdfe5">并</text><text x="181" y="184" fill="#dcdfe5">运</text><text x="199" y="184" fill="#dcdfe5">行</text><text x="217" y="184" fill="#dcdfe5">回</text><text x="235" y="184" fill="#dcdfe5">归</text><text x="253" y="184" fill="#dcdfe5">测</text><text x="271" y="184" fill="#dcdfe5">试</text><text x="19" y="224" fill="#dcdfe5">修</text><text x="37" y="224" fill="#dcdfe5">改</text><text x="55" y="224" fill="#dcdfe5">集</text><text x="73" y="224" fill="#dcdfe5">中</text><text x="91" y="224" fill="#dcdfe5">在</text><text x="118" y="224" fill="#dcdfe5" font-weight="bold">s</text><text x="127" y="224" fill="#dcdfe5" font-weight="bold">r</text><text x="136" y="224" fill="#dcdfe5" font-weight="bold">c</text><text x="145" y="224" fill="#dcdfe5" font-weight="bold">/</text><text x="154" y="224" fill="#dcdfe5" font-weight="bold">t</text><text x="163" y="224" fill="#dcdfe5" font-weight="bold">u</text><text x="172" y="224" fill="#dcdfe5" font-weight="bold">i</text><text x="181" y="224" fill="#dcdfe5" font-weight="bold">/</text><text x="190" y="224" fill="#dcdfe5" font-weight="bold">v</text><text x="199" y="224" fill="#dcdfe5" font-weight="bold">i</text><text x="208" y="224" fill="#dcdfe5" font-weight="bold">e</text><text x="217" y="224" fill="#dcdfe5" font-weight="bold">w</text><text x="226" y="224" fill="#dcdfe5" font-weight="bold">.</text><text x="235" y="224" fill="#dcdfe5" font-weight="bold">r</text><text x="244" y="224" fill="#dcdfe5" font-weight="bold">s</text><text x="253" y="224" fill="#dcdfe5">。</text><text x="19" y="264" fill="#dcdfe5" font-weight="bold">工</text><text x="37" y="264" fill="#dcdfe5" font-weight="bold">具</text><text x="64" y="264" fill="#dcdfe5" font-weight="bold">·</text><text x="82" y="264" fill="#dcdfe5" font-weight="bold">r</text><text x="91" y="264" fill="#dcdfe5" font-weight="bold">e</text><text x="100" y="264" fill="#dcdfe5" font-weight="bold">a</text><text x="109" y="264" fill="#dcdfe5" font-weight="bold">d</text><text x="118" y="264" fill="#dcdfe5" font-weight="bold">_</text><text x="127" y="264" fill="#dcdfe5" font-weight="bold">f</text><text x="136" y="264" fill="#dcdfe5" font-weight="bold">i</text><text x="145" y="264" fill="#dcdfe5" font-weight="bold">l</text><text x="154" y="264" fill="#dcdfe5" font-weight="bold">e</text><text x="19" y="284" fill="#dcdfe5">完</text><text x="37" y="284" fill="#dcdfe5">成</text><text x="64" y="284" fill="#dcdfe5">·</text><text x="82" y="284" fill="#dcdfe5">s</text><text x="91" y="284" fill="#dcdfe5">r</text><text x="100" y="284" fill="#dcdfe5">c</text><text x="109" y="284" fill="#dcdfe5">/</text><text x="118" y="284" fill="#dcdfe5">t</text><text x="127" y="284" fill="#dcdfe5">u</text><text x="136" y="284" fill="#dcdfe5">i</text><text x="145" y="284" fill="#dcdfe5">/</text><text x="154" y="284" fill="#dcdfe5">v</text><text x="163" y="284" fill="#dcdfe5">i</text><text x="172" y="284" fill="#dcdfe5">e</text><text x="181" y="284" fill="#dcdfe5">w</text><text x="190" y="284" fill="#dcdfe5">.</text><text x="199" y="284" fill="#dcdfe5">r</text><text x="208" y="284" fill="#dcdfe5">s</text><text x="19" y="304" fill="#dcdfe5">读</text><text x="37" y="304" fill="#dcdfe5">取</text><text x="55" y="304" fill="#dcdfe5">输</text><text x="73" y="304" fill="#dcdfe5">入</text><text x="91" y="304" fill="#dcdfe5">编</text><text x="109" y="304" fill="#dcdfe5">辑</text><text x="127" y="304" fill="#dcdfe5">与</text><text x="145" y="304" fill="#dcdfe5">恢</text><text x="163" y="304" fill="#dcdfe5">复</text><text x="181" y="304" fill="#dcdfe5">流</text><text x="199" y="304" fill="#dcdfe5">程</text><text x="217" y="304" fill="#dcdfe5">。</text><text x="19" y="344" fill="#dcdfe5" font-weight="bold">工</text><text x="37" y="344" fill="#dcdfe5" font-weight="bold">具</text><text x="64" y="344" fill="#dcdfe5" font-weight="bold">·</text><text x="82" y="344" fill="#dcdfe5" font-weight="bold">a</text><text x="91" y="344" fill="#dcdfe5" font-weight="bold">p</text><text x="100" y="344" fill="#dcdfe5" font-weight="bold">p</text><text x="109" y="344" fill="#dcdfe5" font-weight="bold">l</text><text x="118" y="344" fill="#dcdfe5" font-weight="bold">y</text><text x="127" y="344" fill="#dcdfe5" font-weight="bold">_</text><text x="136" y="344" fill="#dcdfe5" font-weight="bold">p</text><text x="145" y="344" fill="#dcdfe5" font-weight="bold">a</text><text x="154" y="344" fill="#dcdfe5" font-weight="bold">t</text><text x="163" y="344" fill="#dcdfe5" font-weight="bold">c</text><text x="172" y="344" fill="#dcdfe5" font-weight="bold">h</text><text x="19" y="364" fill="#dcdfe5">完</text><text x="37" y="364" fill="#dcdfe5">成</text><text x="64" y="364" fill="#dcdfe5">·</text><text x="82" y="364" fill="#dcdfe5">输</text><text x="100" y="364" fill="#dcdfe5">入</text><text x="118" y="364" fill="#dcdfe5">恢</text><text x="136" y="364" fill="#dcdfe5">复</text><text x="37" y="384" fill="#dcdfe5">d</text><text x="46" y="384" fill="#dcdfe5">i</text><text x="55" y="384" fill="#dcdfe5">f</text><text x="64" y="384" fill="#dcdfe5">f</text><text x="37" y="404" fill="#dcdfe5">@</text><text x="46" y="404" fill="#dcdfe5">@</text><text x="64" y="404" fill="#dcdfe5">r</text><text x="73" y="404" fill="#dcdfe5">e</text><text x="82" y="404" fill="#dcdfe5">c</text><text x="91" y="404" fill="#dcdfe5">o</text><text x="100" y="404" fill="#dcdfe5">v</text><text x="109" y="404" fill="#dcdfe5">e</text><text x="118" y="404" fill="#dcdfe5">r</text><text x="127" y="404" fill="#dcdfe5">_</text><text x="136" y="404" fill="#dcdfe5">d</text><text x="145" y="404" fill="#dcdfe5">r</text><text x="154" y="404" fill="#dcdfe5">a</text><text x="163" y="404" fill="#dcdfe5">f</text><text x="172" y="404" fill="#dcdfe5">t</text><text x="37" y="424" fill="#dcdfe5">-</text><text x="55" y="424" fill="#dcdfe5">d</text><text x="64" y="424" fill="#dcdfe5">r</text><text x="73" y="424" fill="#dcdfe5">a</text><text x="82" y="424" fill="#dcdfe5">f</text><text x="91" y="424" fill="#dcdfe5">t</text><text x="100" y="424" fill="#dcdfe5">.</text><text x="109" y="424" fill="#dcdfe5">c</text><text x="118" y="424" fill="#dcdfe5">l</text><text x="127" y="424" fill="#dcdfe5">e</text><text x="136" y="424" fill="#dcdfe5">a</text><text x="145" y="424" fill="#dcdfe5">r</text><text x="154" y="424" fill="#dcdfe5">(</text><text x="163" y="424" fill="#dcdfe5">)</text><text x="172" y="424" fill="#dcdfe5">;</text><text x="37" y="444" fill="#dcdfe5">+</text><text x="55" y="444" fill="#dcdfe5">d</text><text x="64" y="444" fill="#dcdfe5">r</text><text x="73" y="444" fill="#dcdfe5">a</text><text x="82" y="444" fill="#dcdfe5">f</text><text x="91" y="444" fill="#dcdfe5">t</text><text x="109" y="444" fill="#dcdfe5">=</text><text x="127" y="444" fill="#dcdfe5">p</text><text x="136" y="444" fill="#dcdfe5">r</text><text x="145" y="444" fill="#dcdfe5">e</text><text x="154" y="444" fill="#dcdfe5">v</text><text x="163" y="444" fill="#dcdfe5">i</text><text x="172" y="444" fill="#dcdfe5">o</text><text x="181" y="444" fill="#dcdfe5">u</text><text x="190" y="444" fill="#dcdfe5">s</text><text x="199" y="444" fill="#dcdfe5">.</text><text x="208" y="444" fill="#dcdfe5">c</text><text x="217" y="444" fill="#dcdfe5">l</text><text x="226" y="444" fill="#dcdfe5">o</text><text x="235" y="444" fill="#dcdfe5">n</text><text x="244" y="444" fill="#dcdfe5">e</text><text x="253" y="444" fill="#dcdfe5">(</text><text x="262" y="444" fill="#dcdfe5">)</text><text x="271" y="444" fill="#dcdfe5">;</text><text x="19" y="504" fill="#dcdfe5" font-weight="bold">A</text><text x="28" y="504" fill="#dcdfe5" font-weight="bold">g</text><text x="37" y="504" fill="#dcdfe5" font-weight="bold">e</text><text x="46" y="504" fill="#dcdfe5" font-weight="bold">n</text><text x="55" y="504" fill="#dcdfe5" font-weight="bold">t</text><text x="73" y="504" fill="#dcdfe5" font-weight="bold">·</text><text x="91" y="504" fill="#dcdfe5" font-weight="bold">输</text><text x="109" y="504" fill="#dcdfe5" font-weight="bold">出</text><text x="127" y="504" fill="#dcdfe5" font-weight="bold">中</text><text x="145" y="504" fill="#dcdfe5" font-weight="bold">（</text><text x="163" y="504" fill="#dcdfe5" font-weight="bold">未</text><text x="181" y="504" fill="#dcdfe5" font-weight="bold">交</text><text x="199" y="504" fill="#dcdfe5" font-weight="bold">付</text><text x="217" y="504" fill="#dcdfe5" font-weight="bold">）</text><text x="19" y="524" fill="#dcdfe5">边</text><text x="37" y="524" fill="#dcdfe5">界</text><text x="55" y="524" fill="#dcdfe5">处</text><text x="73" y="524" fill="#dcdfe5">理</text><text x="91" y="524" fill="#dcdfe5">已</text><text x="109" y="524" fill="#dcdfe5">完</text><text x="127" y="524" fill="#dcdfe5">成</text><text x="145" y="524" fill="#dcdfe5">，</text><text x="163" y="524" fill="#dcdfe5">正</text><text x="181" y="524" fill="#dcdfe5">在</text><text x="199" y="524" fill="#dcdfe5">验</text><text x="217" y="524" fill="#dcdfe5">证</text><text x="235" y="524" fill="#dcdfe5">多</text><text x="253" y="524" fill="#dcdfe5">行</text><text x="271" y="524" fill="#dcdfe5">粘</text><text x="289" y="524" fill="#dcdfe5">贴</text><text x="307" y="524" fill="#dcdfe5">与</text><text x="325" y="524" fill="#dcdfe5">组</text><text x="343" y="524" fill="#dcdfe5">合</text><text x="361" y="524" fill="#dcdfe5">字</text><text x="379" y="524" fill="#dcdfe5">符</text><text x="397" y="524" fill="#dcdfe5">。</text><text x="19" y="544" fill="#dcdfe5">这</text><text x="37" y="544" fill="#dcdfe5">段</text><text x="55" y="544" fill="#dcdfe5">是</text><text x="73" y="544" fill="#dcdfe5">未</text><text x="91" y="544" fill="#dcdfe5">交</text><text x="109" y="544" fill="#dcdfe5">付</text><text x="127" y="544" fill="#dcdfe5">的</text><text x="145" y="544" fill="#dcdfe5">流</text><text x="163" y="544" fill="#dcdfe5">式</text><text x="181" y="544" fill="#dcdfe5">预</text><text x="199" y="544" fill="#dcdfe5">览</text><text x="217" y="544" fill="#dcdfe5">。</text><text x="10" y="644" fill="#dcdfe5">┌</text><text x="28" y="644" fill="#dcdfe5">输</text><text x="46" y="644" fill="#dcdfe5">入</text><text x="73" y="644" fill="#dcdfe5">·</text><text x="91" y="644" fill="#dcdfe5">E</text><text x="100" y="644" fill="#dcdfe5">n</text><text x="109" y="644" fill="#dcdfe5">t</text><text x="118" y="644" fill="#dcdfe5">e</text><text x="127" y="644" fill="#dcdfe5">r</text><text x="145" y="644" fill="#dcdfe5">发</text><text x="163" y="644" fill="#dcdfe5">送</text><text x="190" y="644" fill="#dcdfe5">·</text><text x="208" y="644" fill="#dcdfe5">S</text><text x="217" y="644" fill="#dcdfe5">h</text><text x="226" y="644" fill="#dcdfe5">i</text><text x="235" y="644" fill="#dcdfe5">f</text><text x="244" y="644" fill="#dcdfe5">t</text><text x="253" y="644" fill="#dcdfe5">+</text><text x="262" y="644" fill="#dcdfe5">E</text><text x="271" y="644" fill="#dcdfe5">n</text><text x="280" y="644" fill="#dcdfe5">t</text><text x="289" y="644" fill="#dcdfe5">e</text><text x="298" y="644" fill="#dcdfe5">r</text><text x="316" y="644" fill="#dcdfe5">换</text><text x="334" y="644" fill="#dcdfe5">行</text><text x="361" y="644" fill="#dcdfe5">─</text><text x="370" y="644" fill="#dcdfe5">─</text><text x="379" y="644" fill="#dcdfe5">─</text><text x="388" y="644" fill="#dcdfe5">─</text><text x="397" y="644" fill="#dcdfe5">─</text><text x="406" y="644" fill="#dcdfe5">─</text><text x="415" y="644" fill="#dcdfe5">─</text><text x="424" y="644" fill="#dcdfe5">─</text><text x="433" y="644" fill="#dcdfe5">─</text><text x="442" y="644" fill="#dcdfe5">─</text><text x="451" y="644" fill="#dcdfe5">─</text><text x="460" y="644" fill="#dcdfe5">─</text><text x="469" y="644" fill="#dcdfe5">─</text><text x="478" y="644" fill="#dcdfe5">─</text><text x="487" y="644" fill="#dcdfe5">─</text><text x="496" y="644" fill="#dcdfe5">─</text><text x="505" y="644" fill="#dcdfe5">─</text><text x="514" y="644" fill="#dcdfe5">─</text><text x="523" y="644" fill="#dcdfe5">─</text><text x="532" y="644" fill="#dcdfe5">─</text><text x="541" y="644" fill="#dcdfe5">─</text><text x="550" y="644" fill="#dcdfe5">─</text><text x="559" y="644" fill="#dcdfe5">─</text><text x="568" y="644" fill="#dcdfe5">─</text><text x="577" y="644" fill="#dcdfe5">─</text><text x="586" y="644" fill="#dcdfe5">─</text><text x="595" y="644" fill="#dcdfe5">─</text><text x="604" y="644" fill="#dcdfe5">─</text><text x="613" y="644" fill="#dcdfe5">─</text><text x="622" y="644" fill="#dcdfe5">─</text><text x="631" y="644" fill="#dcdfe5">─</text><text x="640" y="644" fill="#dcdfe5">─</text><text x="649" y="644" fill="#dcdfe5">─</text><text x="658" y="644" fill="#dcdfe5">─</text><text x="667" y="644" fill="#dcdfe5">─</text><text x="676" y="644" fill="#dcdfe5">─</text><text x="685" y="644" fill="#dcdfe5">─</text><text x="694" y="644" fill="#dcdfe5">─</text><text x="703" y="644" fill="#dcdfe5">─</text><text x="712" y="644" fill="#dcdfe5">─</text><text x="721" y="644" fill="#dcdfe5">─</text><text x="730" y="644" fill="#dcdfe5">─</text><text x="739" y="644" fill="#dcdfe5">─</text><text x="748" y="644" fill="#dcdfe5">─</text><text x="757" y="644" fill="#dcdfe5">─</text><text x="766" y="644" fill="#dcdfe5">─</text><text x="775" y="644" fill="#dcdfe5">─</text><text x="784" y="644" fill="#dcdfe5">─</text><text x="793" y="644" fill="#dcdfe5">─</text><text x="802" y="644" fill="#dcdfe5">─</text><text x="811" y="644" fill="#dcdfe5">─</text><text x="820" y="644" fill="#dcdfe5">─</text><text x="829" y="644" fill="#dcdfe5">─</text><text x="838" y="644" fill="#dcdfe5">─</text><text x="847" y="644" fill="#dcdfe5">─</text><text x="856" y="644" fill="#dcdfe5">─</text><text x="865" y="644" fill="#dcdfe5">─</text><text x="874" y="644" fill="#dcdfe5">─</text><text x="883" y="644" fill="#dcdfe5">─</text><text x="892" y="644" fill="#dcdfe5">─</text><text x="901" y="644" fill="#dcdfe5">─</text><text x="910" y="644" fill="#dcdfe5">─</text><text x="919" y="644" fill="#dcdfe5">─</text><text x="928" y="644" fill="#dcdfe5">─</text><text x="937" y="644" fill="#dcdfe5">─</text><text x="946" y="644" fill="#dcdfe5">─</text><text x="955" y="644" fill="#dcdfe5">─</text><text x="964" y="644" fill="#dcdfe5">─</text><text x="973" y="644" fill="#dcdfe5">─</text><text x="982" y="644" fill="#dcdfe5">─</text><text x="991" y="644" fill="#dcdfe5">─</text><text x="1000" y="644" fill="#dcdfe5">─</text><text x="1009" y="644" fill="#dcdfe5">─</text><text x="1018" y="644" fill="#dcdfe5">─</text><text x="1027" y="644" fill="#dcdfe5">─</text><text x="1036" y="644" fill="#dcdfe5">─</text><text x="1045" y="644" fill="#dcdfe5">─</text><text x="1054" y="644" fill="#dcdfe5">─</text><text x="1063" y="644" fill="#dcdfe5">─</text><text x="1072" y="644" fill="#dcdfe5">─</text><text x="1081" y="644" fill="#dcdfe5">┐</text><text x="10" y="664" fill="#dcdfe5">│</text><text x="19" y="664" fill="#dcdfe5">补</text><text x="37" y="664" fill="#dcdfe5">充</text><text x="55" y="664" fill="#dcdfe5">：</text><text x="73" y="664" fill="#dcdfe5">失</text><text x="91" y="664" fill="#dcdfe5">败</text><text x="109" y="664" fill="#dcdfe5">时</text><text x="127" y="664" fill="#dcdfe5">保</text><text x="145" y="664" fill="#dcdfe5">留</text><text x="163" y="664" fill="#dcdfe5">当</text><text x="181" y="664" fill="#dcdfe5">前</text><text x="199" y="664" fill="#dcdfe5">草</text><text x="217" y="664" fill="#dcdfe5">稿</text><text x="235" y="664" fill="#dcdfe5">。</text><text x="1081" y="664" fill="#dcdfe5">│</text><text x="10" y="684" fill="#dcdfe5">│</text><text x="19" y="684" fill="#dcdfe5">请</text><text x="37" y="684" fill="#dcdfe5">验</text><text x="55" y="684" fill="#dcdfe5">证</text><text x="73" y="684" fill="#dcdfe5">中</text><text x="91" y="684" fill="#dcdfe5">文</text><text x="109" y="684" fill="#dcdfe5">、</text><text x="127" y="684" fill="#dcdfe5">e</text><text x="136" y="684" fill="#dcdfe5">m</text><text x="145" y="684" fill="#dcdfe5">o</text><text x="154" y="684" fill="#dcdfe5">j</text><text x="163" y="684" fill="#dcdfe5">i</text><text x="181" y="684" fill="#dcdfe5">和</text><text x="199" y="684" fill="#dcdfe5">多</text><text x="217" y="684" fill="#dcdfe5">行</text><text x="235" y="684" fill="#dcdfe5">输</text><text x="253" y="684" fill="#dcdfe5">入</text><text x="271" y="684" fill="#dcdfe5">。</text><text x="1081" y="684" fill="#dcdfe5">│</text><text x="10" y="704" fill="#dcdfe5">└</text><text x="19" y="704" fill="#dcdfe5">─</text><text x="28" y="704" fill="#dcdfe5">─</text><text x="37" y="704" fill="#dcdfe5">─</text><text x="46" y="704" fill="#dcdfe5">─</text><text x="55" y="704" fill="#dcdfe5">─</text><text x="64" y="704" fill="#dcdfe5">─</text><text x="73" y="704" fill="#dcdfe5">─</text><text x="82" y="704" fill="#dcdfe5">─</text><text x="91" y="704" fill="#dcdfe5">─</text><text x="100" y="704" fill="#dcdfe5">─</text><text x="109" y="704" fill="#dcdfe5">─</text><text x="118" y="704" fill="#dcdfe5">─</text><text x="127" y="704" fill="#dcdfe5">─</text><text x="136" y="704" fill="#dcdfe5">─</text><text x="145" y="704" fill="#dcdfe5">─</text><text x="154" y="704" fill="#dcdfe5">─</text><text x="163" y="704" fill="#dcdfe5">─</text><text x="172" y="704" fill="#dcdfe5">─</text><text x="181" y="704" fill="#dcdfe5">─</text><text x="190" y="704" fill="#dcdfe5">─</text><text x="199" y="704" fill="#dcdfe5">─</text><text x="208" y="704" fill="#dcdfe5">─</text><text x="217" y="704" fill="#dcdfe5">─</text><text x="226" y="704" fill="#dcdfe5">─</text><text x="235" y="704" fill="#dcdfe5">─</text><text x="244" y="704" fill="#dcdfe5">─</text><text x="253" y="704" fill="#dcdfe5">─</text><text x="262" y="704" fill="#dcdfe5">─</text><text x="271" y="704" fill="#dcdfe5">─</text><text x="280" y="704" fill="#dcdfe5">─</text><text x="289" y="704" fill="#dcdfe5">─</text><text x="298" y="704" fill="#dcdfe5">─</text><text x="307" y="704" fill="#dcdfe5">─</text><text x="316" y="704" fill="#dcdfe5">─</text><text x="325" y="704" fill="#dcdfe5">─</text><text x="334" y="704" fill="#dcdfe5">─</text><text x="343" y="704" fill="#dcdfe5">─</text><text x="352" y="704" fill="#dcdfe5">─</text><text x="361" y="704" fill="#dcdfe5">─</text><text x="370" y="704" fill="#dcdfe5">─</text><text x="379" y="704" fill="#dcdfe5">─</text><text x="388" y="704" fill="#dcdfe5">─</text><text x="397" y="704" fill="#dcdfe5">─</text><text x="406" y="704" fill="#dcdfe5">─</text><text x="415" y="704" fill="#dcdfe5">─</text><text x="424" y="704" fill="#dcdfe5">─</text><text x="433" y="704" fill="#dcdfe5">─</text><text x="442" y="704" fill="#dcdfe5">─</text><text x="451" y="704" fill="#dcdfe5">─</text><text x="460" y="704" fill="#dcdfe5">─</text><text x="469" y="704" fill="#dcdfe5">─</text><text x="478" y="704" fill="#dcdfe5">─</text><text x="487" y="704" fill="#dcdfe5">─</text><text x="496" y="704" fill="#dcdfe5">─</text><text x="505" y="704" fill="#dcdfe5">─</text><text x="514" y="704" fill="#dcdfe5">─</text><text x="523" y="704" fill="#dcdfe5">─</text><text x="532" y="704" fill="#dcdfe5">─</text><text x="541" y="704" fill="#dcdfe5">─</text><text x="550" y="704" fill="#dcdfe5">─</text><text x="559" y="704" fill="#dcdfe5">─</text><text x="568" y="704" fill="#dcdfe5">─</text><text x="577" y="704" fill="#dcdfe5">─</text><text x="586" y="704" fill="#dcdfe5">─</text><text x="595" y="704" fill="#dcdfe5">─</text><text x="604" y="704" fill="#dcdfe5">─</text><text x="613" y="704" fill="#dcdfe5">─</text><text x="622" y="704" fill="#dcdfe5">─</text><text x="631" y="704" fill="#dcdfe5">─</text><text x="640" y="704" fill="#dcdfe5">─</text><text x="649" y="704" fill="#dcdfe5">─</text><text x="658" y="704" fill="#dcdfe5">─</text><text x="667" y="704" fill="#dcdfe5">─</text><text x="676" y="704" fill="#dcdfe5">─</text><text x="685" y="704" fill="#dcdfe5">─</text><text x="694" y="704" fill="#dcdfe5">─</text><text x="703" y="704" fill="#dcdfe5">─</text><text x="712" y="704" fill="#dcdfe5">─</text><text x="721" y="704" fill="#dcdfe5">─</text><text x="730" y="704" fill="#dcdfe5">─</text><text x="739" y="704" fill="#dcdfe5">─</text><text x="748" y="704" fill="#dcdfe5">─</text><text x="757" y="704" fill="#dcdfe5">─</text><text x="766" y="704" fill="#dcdfe5">─</text><text x="775" y="704" fill="#dcdfe5">─</text><text x="784" y="704" fill="#dcdfe5">─</text><text x="793" y="704" fill="#dcdfe5">─</text><text x="802" y="704" fill="#dcdfe5">─</text><text x="811" y="704" fill="#dcdfe5">─</text><text x="820" y="704" fill="#dcdfe5">─</text><text x="829" y="704" fill="#dcdfe5">─</text><text x="838" y="704" fill="#dcdfe5">─</text><text x="847" y="704" fill="#dcdfe5">─</text><text x="856" y="704" fill="#dcdfe5">─</text><text x="865" y="704" fill="#dcdfe5">─</text><text x="874" y="704" fill="#dcdfe5">─</text><text x="883" y="704" fill="#dcdfe5">─</text><text x="892" y="704" fill="#dcdfe5">─</text><text x="901" y="704" fill="#dcdfe5">─</text><text x="910" y="704" fill="#dcdfe5">─</text><text x="919" y="704" fill="#dcdfe5">─</text><text x="928" y="704" fill="#dcdfe5">─</text><text x="937" y="704" fill="#dcdfe5">─</text><text x="946" y="704" fill="#dcdfe5">─</text><text x="955" y="704" fill="#dcdfe5">─</text><text x="964" y="704" fill="#dcdfe5">─</text><text x="973" y="704" fill="#dcdfe5">─</text><text x="982" y="704" fill="#dcdfe5">─</text><text x="991" y="704" fill="#dcdfe5">─</text><text x="1000" y="704" fill="#dcdfe5">─</text><text x="1009" y="704" fill="#dcdfe5">─</text><text x="1018" y="704" fill="#dcdfe5">─</text><text x="1027" y="704" fill="#dcdfe5">─</text><text x="1036" y="704" fill="#dcdfe5">─</text><text x="1045" y="704" fill="#dcdfe5">─</text><text x="1054" y="704" fill="#dcdfe5">─</text><text x="1063" y="704" fill="#dcdfe5">─</text><text x="1072" y="704" fill="#dcdfe5">─</text><text x="1081" y="704" fill="#dcdfe5">┘</text><text x="19" y="724" fill="#dcdfe5">渲</text><text x="37" y="724" fill="#dcdfe5">染</text><text x="55" y="724" fill="#dcdfe5">测</text><text x="73" y="724" fill="#dcdfe5">试</text><text x="91" y="724" fill="#dcdfe5">数</text><text x="109" y="724" fill="#dcdfe5">据</text><text x="136" y="724" fill="#dcdfe5">·</text><text x="154" y="724" fill="#dcdfe5">非</text><text x="172" y="724" fill="#dcdfe5">真</text><text x="190" y="724" fill="#dcdfe5">实</text><text x="208" y="724" fill="#dcdfe5">模</text><text x="226" y="724" fill="#dcdfe5">型</text><text x="244" y="724" fill="#dcdfe5">运</text><text x="262" y="724" fill="#dcdfe5">行</text><text x="289" y="724" fill="#dcdfe5">·</text><text x="307" y="724" fill="#dcdfe5">C</text><text x="316" y="724" fill="#dcdfe5">t</text><text x="325" y="724" fill="#dcdfe5">r</text><text x="334" y="724" fill="#dcdfe5">l</text><text x="343" y="724" fill="#dcdfe5">+</text><text x="352" y="724" fill="#dcdfe5">P</text><text x="370" y="724" fill="#dcdfe5">命</text><text x="388" y="724" fill="#dcdfe5">令</text><text x="415" y="724" fill="#dcdfe5">·</text><text x="433" y="724" fill="#dcdfe5">C</text><text x="442" y="724" fill="#dcdfe5">t</text><text x="451" y="724" fill="#dcdfe5">r</text><text x="460" y="724" fill="#dcdfe5">l</text><text x="469" y="724" fill="#dcdfe5">+</text><text x="478" y="724" fill="#dcdfe5">O</text><text x="496" y="724" fill="#dcdfe5">文</text><text x="514" y="724" fill="#dcdfe5">件</text><text x="19" y="744" fill="#dcdfe5">B</text><text x="28" y="744" fill="#dcdfe5">O</text><text x="37" y="744" fill="#dcdfe5">N</text><text x="46" y="744" fill="#dcdfe5">E</text><text x="64" y="744" fill="#dcdfe5">·</text><text x="82" y="744" fill="#dcdfe5">p</text><text x="91" y="744" fill="#dcdfe5">r</text><text x="100" y="744" fill="#dcdfe5">o</text><text x="109" y="744" fill="#dcdfe5">v</text><text x="118" y="744" fill="#dcdfe5">i</text><text x="127" y="744" fill="#dcdfe5">d</text><text x="136" y="744" fill="#dcdfe5">e</text><text x="145" y="744" fill="#dcdfe5">r</text><text x="154" y="744" fill="#dcdfe5">/</text><text x="163" y="744" fill="#dcdfe5">m</text><text x="172" y="744" fill="#dcdfe5">o</text><text x="181" y="744" fill="#dcdfe5">d</text><text x="190" y="744" fill="#dcdfe5">e</text><text x="199" y="744" fill="#dcdfe5">l</text><text x="217" y="744" fill="#dcdfe5">·</text><text x="235" y="744" fill="#dcdfe5">f</text><text x="244" y="744" fill="#dcdfe5">i</text><text x="253" y="744" fill="#dcdfe5">x</text><text x="262" y="744" fill="#dcdfe5">t</text><text x="271" y="744" fill="#dcdfe5">u</text><text x="280" y="744" fill="#dcdfe5">r</text><text x="289" y="744" fill="#dcdfe5">e</text><text x="307" y="744" fill="#dcdfe5">·</text><text x="325" y="744" fill="#dcdfe5">2</text><text x="343" y="744" fill="#dcdfe5">/</text><text x="361" y="744" fill="#dcdfe5">2</text><text x="370" y="744" fill="#dcdfe5">4</text><text x="388" y="744" fill="#dcdfe5">c</text><text x="397" y="744" fill="#dcdfe5">a</text><text x="406" y="744" fill="#dcdfe5">l</text><text x="415" y="744" fill="#dcdfe5">l</text><text x="424" y="744" fill="#dcdfe5">s</text><text x="442" y="744" fill="#dcdfe5">·</text><text x="460" y="744" fill="#dcdfe5">1</text><text x="469" y="744" fill="#dcdfe5">,</text><text x="478" y="744" fill="#dcdfe5">2</text><text x="487" y="744" fill="#dcdfe5">4</text><text x="496" y="744" fill="#dcdfe5">0</text><text x="514" y="744" fill="#dcdfe5">t</text><text x="523" y="744" fill="#dcdfe5">o</text><text x="532" y="744" fill="#dcdfe5">k</text><text x="541" y="744" fill="#dcdfe5">e</text><text x="550" y="744" fill="#dcdfe5">n</text><text x="559" y="744" fill="#dcdfe5">s</text><text x="577" y="744" fill="#dcdfe5">·</text><text x="595" y="744" fill="#dcdfe5">可</text><text x="613" y="744" fill="#dcdfe5">写</text><text x="640" y="744" fill="#dcdfe5">·</text><text x="658" y="744" fill="#dcdfe5">工</text><text x="676" y="744" fill="#dcdfe5">作</text><text x="694" y="744" fill="#dcdfe5">中</text><text x="721" y="744" fill="#dcdfe5">·</text><text x="739" y="744" fill="#dcdfe5">1</text><text x="748" y="744" fill="#dcdfe5">2</text><text x="757" y="744" fill="#dcdfe5">s</text></g></svg>