<svg xmlns="http://www.w3.org/2000/svg" width="1080" height="640" viewBox="0 0 1080 640" role="img"><title>BONE · proposed design</title><g font-family="Menlo, monospace" font-size="14"><rect x="0" y="0" width="1080" height="640" fill="#101010"/><rect x="0" y="0" width="216" height="640" fill="#141414"/><text y="35" fill="#969696" font-weight="400"><tspan x="18">S</tspan><tspan x="27">e</tspan><tspan x="36">s</tspan><tspan x="45">s</tspan><tspan x="54">i</tspan><tspan x="63">o</tspan><tspan x="72">n</tspan><tspan x="81">s</tspan></text><rect x="9" y="80" width="198" height="40" fill="#282828"/><text y="95" fill="#fab283" font-weight="400"><tspan x="9">▎</tspan></text><text y="95" fill="#eeeeee" font-weight="600"><tspan x="27">D</tspan><tspan x="36">r</tspan><tspan x="45">a</tspan><tspan x="54">f</tspan><tspan x="63">t</tspan><tspan x="72"> </tspan><tspan x="81">r</tspan><tspan x="90">e</tspan><tspan x="99">c</tspan><tspan x="108">o</tspan><tspan x="117">v</tspan><tspan x="126">e</tspan><tspan x="135">r</tspan><tspan x="144">y</tspan></text><text y="115" fill="#969696" font-weight="400"><tspan x="27">R</tspan><tspan x="36">e</tspan><tspan x="45">a</tspan><tspan x="54">d</tspan><tspan x="63">y</tspan></text><text y="155" fill="#969696" font-weight="400"><tspan x="27">C</tspan><tspan x="36">o</tspan><tspan x="45">n</tspan><tspan x="54">t</tspan><tspan x="63">e</tspan><tspan x="72">x</tspan><tspan x="81">t</tspan><tspan x="90"> </tspan><tspan x="99">e</tspan><tspan x="108">n</tspan><tspan x="117">g</tspan><tspan x="126">i</tspan><tspan x="135">n</tspan><tspan x="144">e</tspan></text><text y="175" fill="#fab283" font-weight="400"><tspan x="27">N</tspan><tspan x="36">e</tspan><tspan x="45">e</tspan><tspan x="54">d</tspan><tspan x="63">s</tspan><tspan x="72"> </tspan><tspan x="81">y</tspan><tspan x="90">o</tspan><tspan x="99">u</tspan></text><text y="215" fill="#969696" font-weight="400"><tspan x="27">C</tspan><tspan x="36">L</tspan><tspan x="45">I</tspan><tspan x="54"> </tspan><tspan x="63">s</tspan><tspan x="72">t</tspan><tspan x="81">a</tspan><tspan x="90">r</tspan><tspan x="99">t</tspan><tspan x="108">u</tspan><tspan x="117">p</tspan></text><text y="235" fill="#969696" font-weight="400"><tspan x="27">D</tspan><tspan x="36">r</tspan><tspan x="45">a</tspan><tspan x="54">f</tspan><tspan x="63">t</tspan></text><text y="615" fill="#969696" font-weight="400"><tspan x="18">B</tspan><tspan x="27">O</tspan><tspan x="36">N</tspan><tspan x="45">E</tspan></text><text y="35" fill="#eeeeee" font-weight="600"><tspan x="234">D</tspan><tspan x="243">r</tspan><tspan x="252">a</tspan><tspan x="261">f</tspan><tspan x="270">t</tspan><tspan x="279"> </tspan><tspan x="288">r</tspan><tspan x="297">e</tspan><tspan x="306">c</tspan><tspan x="315">o</tspan><tspan x="324">v</tspan><tspan x="333">e</tspan><tspan x="342">r</tspan><tspan x="351">y</tspan></text><text y="35" fill="#969696" font-weight="400"><tspan x="1017">R</tspan><tspan x="1026">e</tspan><tspan x="1035">a</tspan><tspan x="1044">d</tspan><tspan x="1053">y</tspan></text><rect x="234" y="80" width="828" height="60" fill="#1e1e1e"/><text y="115" fill="#969696" font-weight="400"><tspan x="234">│</tspan></text><text y="115" fill="#eeeeee" font-weight="400"><tspan x="261">F</tspan><tspan x="270">i</tspan><tspan x="279">x</tspan><tspan x="288"> </tspan><tspan x="297">d</tspan><tspan x="306">r</tspan><tspan x="315">a</tspan><tspan x="324">f</tspan><tspan x="333">t</tspan><tspan x="342"> </tspan><tspan x="351">r</tspan><tspan x="360">e</tspan><tspan x="369">c</tspan><tspan x="378">o</tspan><tspan x="387">v</tspan><tspan x="396">e</tspan><tspan x="405">r</tspan><tspan x="414">y</tspan><tspan x="423"> </tspan><tspan x="432">w</tspan><tspan x="441">h</tspan><tspan x="450">e</tspan><tspan x="459">n</tspan><tspan x="468"> </tspan><tspan x="477">s</tspan><tspan x="486">w</tspan><tspan x="495">i</tspan><tspan x="504">t</tspan><tspan x="513">c</tspan><tspan x="522">h</tspan><tspan x="531">i</tspan><tspan x="540">n</tspan><tspan x="549">g</tspan><tspan x="558"> </tspan><tspan x="567">s</tspan><tspan x="576">e</tspan><tspan x="585">s</tspan><tspan x="594">s</tspan><tspan x="603">i</tspan><tspan x="612">o</tspan><tspan x="621">n</tspan><tspan x="630">s</tspan><tspan x="639">.</tspan></text><text y="195" fill="#eeeeee" font-weight="400"><tspan x="261">T</tspan><tspan x="270">h</tspan><tspan x="279">e</tspan><tspan x="288"> </tspan><tspan x="297">n</tspan><tspan x="306">e</tspan><tspan x="315">w</tspan><tspan x="324">e</tspan><tspan x="333">r</tspan><tspan x="342"> </tspan><tspan x="351">d</tspan><tspan x="360">r</tspan><tspan x="369">a</tspan><tspan x="378">f</tspan><tspan x="387">t</tspan><tspan x="396"> </tspan><tspan x="405">w</tspan><tspan x="414">i</tspan><tspan x="423">l</tspan><tspan x="432">l</tspan><tspan x="441"> </tspan><tspan x="450">r</tspan><tspan x="459">e</tspan><tspan x="468">m</tspan><tspan x="477">a</tspan><tspan x="486">i</tspan><tspan x="495">n</tspan><tspan x="504"> </tspan><tspan x="513">i</tspan><tspan x="522">n</tspan><tspan x="531">t</tspan><tspan x="540">a</tspan><tspan x="549">c</tspan><tspan x="558">t</tspan><tspan x="567">.</tspan></text><text y="255" fill="#969696" font-weight="400"><tspan x="261">›</tspan><tspan x="270"> </tspan><tspan x="279">r</tspan><tspan x="288">e</tspan><tspan x="297">a</tspan><tspan x="306">d</tspan><tspan x="315"> </tspan><tspan x="324"> </tspan><tspan x="333"> </tspan><tspan x="342">s</tspan><tspan x="351">t</tspan><tspan x="360">a</tspan><tspan x="369">t</tspan><tspan x="378">e</tspan><tspan x="387">/</tspan><tspan x="396">u</tspan><tspan x="405">p</tspan><tspan x="414">d</tspan><tspan x="423">a</tspan><tspan x="432">t</tspan><tspan x="441">e</tspan><tspan x="450">.</tspan><tspan x="459">r</tspan><tspan x="468">s</tspan></text><text y="315" fill="#eeeeee" font-weight="400"><tspan x="261">•</tspan><tspan x="270"> </tspan><tspan x="279">M</tspan><tspan x="288">a</tspan><tspan x="297">t</tspan><tspan x="306">c</tspan><tspan x="315">h</tspan><tspan x="324"> </tspan><tspan x="333">t</tspan><tspan x="342">h</tspan><tspan x="351">e</tspan><tspan x="360"> </tspan><tspan x="369">s</tspan><tspan x="378">u</tspan><tspan x="387">b</tspan><tspan x="396">m</tspan><tspan x="405">i</tspan><tspan x="414">t</tspan><tspan x="423"> </tspan><tspan x="432">r</tspan><tspan x="441">e</tspan><tspan x="450">v</tspan><tspan x="459">i</tspan><tspan x="468">s</tspan><tspan x="477">i</tspan><tspan x="486">o</tspan><tspan x="495">n</tspan><tspan x="504"> </tspan><tspan x="513">b</tspan><tspan x="522">e</tspan><tspan x="531">f</tspan><tspan x="540">o</tspan><tspan x="549">r</tspan><tspan x="558">e</tspan><tspan x="567"> </tspan><tspan x="576">c</tspan><tspan x="585">l</tspan><tspan x="594">e</tspan><tspan x="603">a</tspan><tspan x="612">r</tspan><tspan x="621">i</tspan><tspan x="630">n</tspan><tspan x="639">g</tspan><tspan x="648">.</tspan></text><rect x="234" y="500" width="828" height="120" fill="#1e1e1e"/><text y="515" fill="#fab283" font-weight="400"><tspan x="234">┃</tspan></text><text y="535" fill="#fab283" font-weight="400"><tspan x="234">┃</tspan></text><text y="555" fill="#fab283" font-weight="400"><tspan x="234">┃</tspan></text><text y="575" fill="#fab283" font-weight="400"><tspan x="234">┃</tspan></text><text y="595" fill="#fab283" font-weight="400"><tspan x="234">┃</tspan></text><text y="615" fill="#fab283" font-weight="400"><tspan x="234">┃</tspan></text><text y="535" fill="#eeeeee" font-weight="400"><tspan x="261">K</tspan><tspan x="270">e</tspan><tspan x="279">e</tspan><tspan x="288">p</tspan><tspan x="297"> </tspan><tspan x="306">t</tspan><tspan x="315">h</tspan><tspan x="324">e</tspan><tspan x="333"> </tspan><tspan x="342">n</tspan><tspan x="351">e</tspan><tspan x="360">w</tspan><tspan x="369"> </tspan><tspan x="378">d</tspan><tspan x="387">r</tspan><tspan x="396">a</tspan><tspan x="405">f</tspan><tspan x="414">t</tspan><tspan x="423"> </tspan><tspan x="432">a</tspan><tspan x="441">f</tspan><tspan x="450">t</tspan><tspan x="459">e</tspan><tspan x="468">r</tspan><tspan x="477"> </tspan><tspan x="486">s</tspan><tspan x="495">u</tspan><tspan x="504">b</tspan><tspan x="513">m</tspan><tspan x="522">i</tspan><tspan x="531">t</tspan><tspan x="540">t</tspan><tspan x="549">i</tspan><tspan x="558">n</tspan><tspan x="567">g</tspan><tspan x="576">.</tspan></text><text y="555" fill="#eeeeee" font-weight="400"><tspan x="261">A</tspan><tspan x="270">l</tspan><tspan x="279">s</tspan><tspan x="288">o</tspan><tspan x="297"> </tspan><tspan x="306">c</tspan><tspan x="315">o</tspan><tspan x="324">v</tspan><tspan x="333">e</tspan><tspan x="342">r</tspan><tspan x="351"> </tspan><tspan x="360">C</tspan><tspan x="369">h</tspan><tspan x="378">i</tspan><tspan x="387">n</tspan><tspan x="396">e</tspan><tspan x="405">s</tspan><tspan x="414">e</tspan><tspan x="423"> </tspan><tspan x="432">i</tspan><tspan x="441">n</tspan><tspan x="450">p</tspan><tspan x="459">u</tspan><tspan x="468">t</tspan><tspan x="477"> </tspan><tspan x="486">a</tspan><tspan x="495">n</tspan><tspan x="504">d</tspan><tspan x="513"> </tspan><tspan x="522">e</tspan><tspan x="531">m</tspan><tspan x="540">o</tspan><tspan x="549">j</tspan><tspan x="558">i</tspan><tspan x="567">.</tspan></text><text y="575" fill="#eeeeee" font-weight="400"><tspan x="261">D</tspan><tspan x="270">o</tspan><tspan x="279"> </tspan><tspan x="288">n</tspan><tspan x="297">o</tspan><tspan x="306">t</tspan><tspan x="315"> </tspan><tspan x="324">m</tspan><tspan x="333">o</tspan><tspan x="342">v</tspan><tspan x="351">e</tspan><tspan x="360"> </tspan><tspan x="369">t</tspan><tspan x="378">h</tspan><tspan x="387">e</tspan><tspan x="396"> </tspan><tspan x="405">r</tspan><tspan x="414">e</tspan><tspan x="423">a</tspan><tspan x="432">d</tspan><tspan x="441">i</tspan><tspan x="450">n</tspan><tspan x="459">g</tspan><tspan x="468"> </tspan><tspan x="477">p</tspan><tspan x="486">o</tspan><tspan x="495">s</tspan><tspan x="504">i</tspan><tspan x="513">t</tspan><tspan x="522">i</tspan><tspan x="531">o</tspan><tspan x="540">n</tspan><tspan x="549">.</tspan></text><text y="595" fill="#969696" font-weight="400"><tspan x="261">W</tspan><tspan x="270">o</tspan><tspan x="279">r</tspan><tspan x="288">k</tspan><tspan x="297">e</tspan><tspan x="306">r</tspan><tspan x="315"> </tspan><tspan x="324">·</tspan><tspan x="333"> </tspan><tspan x="342">m</tspan><tspan x="351">o</tspan><tspan x="360">d</tspan><tspan x="369">e</tspan><tspan x="378">l</tspan></text><text y="595" fill="#fab283" font-weight="400"><tspan x="954">e</tspan><tspan x="963">n</tspan><tspan x="972">t</tspan><tspan x="981">e</tspan><tspan x="990">r</tspan><tspan x="999"> </tspan><tspan x="1008">s</tspan><tspan x="1017">e</tspan><tspan x="1026">n</tspan><tspan x="1035">d</tspan></text><text y="635" fill="#969696" font-weight="400"><tspan x="792">a</tspan><tspan x="801">l</tspan><tspan x="810">t</tspan><tspan x="819">+</tspan><tspan x="828">e</tspan><tspan x="837">n</tspan><tspan x="846">t</tspan><tspan x="855">e</tspan><tspan x="864">r</tspan><tspan x="873"> </tspan><tspan x="882">n</tspan><tspan x="891">e</tspan><tspan x="900">w</tspan><tspan x="909">l</tspan><tspan x="918">i</tspan><tspan x="927">n</tspan><tspan x="936">e</tspan><tspan x="945"> </tspan><tspan x="954"> </tspan><tspan x="963"> </tspan><tspan x="972">/</tspan><tspan x="981"> </tspan><tspan x="990">c</tspan><tspan x="999">o</tspan><tspan x="1008">m</tspan><tspan x="1017">m</tspan><tspan x="1026">a</tspan><tspan x="1035">n</tspan><tspan x="1044">d</tspan><tspan x="1053">s</tspan></text></g></svg>