<svg xmlns="http://www.w3.org/2000/svg" width="1422" height="800" viewBox="0 0 1422 800" role="img"><title>opencode-empty · actual tmux capture</title><g font-family="Menlo, monospace" font-size="14"><rect x="0" y="0" width="1422" height="800" fill="#101010"/><rect x="0" y="260" width="549" height="20" fill="#0a0a0a"/><text y="275" fill="#ffffff" font-weight="400"><tspan x="0"> </tspan><tspan x="9"> </tspan><tspan x="18"> </tspan><tspan x="27"> </tspan><tspan x="36"> </tspan><tspan x="45"> </tspan><tspan x="54"> </tspan><tspan x="63"> </tspan><tspan x="72"> </tspan><tspan x="81"> </tspan><tspan x="90"> </tspan><tspan x="99"> </tspan><tspan x="108"> </tspan><tspan x="117"> </tspan><tspan x="126"> </tspan><tspan x="135"> </tspan><tspan x="144"> </tspan><tspan x="153"> </tspan><tspan x="162"> </tspan><tspan x="171"> </tspan><tspan x="180"> </tspan><tspan x="189"> </tspan><tspan x="198"> </tspan><tspan x="207"> </tspan><tspan x="216"> </tspan><tspan x="225"> </tspan><tspan x="234"> </tspan><tspan x="243"> </tspan><tspan x="252"> </tspan><tspan x="261"> </tspan><tspan x="270"> </tspan><tspan x="279"> </tspan><tspan x="288"> </tspan><tspan x="297"> </tspan><tspan x="306"> </tspan><tspan x="315"> </tspan><tspan x="324"> </tspan><tspan x="333"> </tspan><tspan x="342"> </tspan><tspan x="351"> </tspan><tspan x="360"> </tspan><tspan x="369"> </tspan><tspan x="378"> </tspan><tspan x="387"> </tspan><tspan x="396"> </tspan><tspan x="405"> </tspan><tspan x="414"> </tspan><tspan x="423"> </tspan><tspan x="432"> </tspan><tspan x="441"> </tspan><tspan x="450"> </tspan><tspan x="459"> </tspan><tspan x="468"> </tspan><tspan x="477"> </tspan><tspan x="486"> </tspan><tspan x="495"> </tspan><tspan x="504"> </tspan><tspan x="513"> </tspan><tspan x="522"> </tspan><tspan x="531"> </tspan><tspan x="540"> </tspan></text><rect x="549" y="260" width="171" height="20" fill="#0a0a0a"/><text y="275" fill="#808080" font-weight="400"><tspan x="549"> </tspan><tspan x="558"> </tspan><tspan x="567"> </tspan><tspan x="576"> </tspan><tspan x="585"> </tspan><tspan x="594"> </tspan><tspan x="603"> </tspan><tspan x="612"> </tspan><tspan x="621"> </tspan><tspan x="630"> </tspan><tspan x="639"> </tspan><tspan x="648"> </tspan><tspan x="657"> </tspan><tspan x="666"> </tspan><tspan x="675"> </tspan><tspan x="684"> </tspan><tspan x="693"> </tspan><tspan x="702"> </tspan><tspan x="711"> </tspan></text><rect x="720" y="260" width="9" height="20" fill="#0a0a0a"/><text y="275" fill="#ffffff" font-weight="400"><tspan x="720"> </tspan></text><rect x="729" y="260" width="171" height="20" fill="#0a0a0a"/><text y="275" fill="#eeeeee" font-weight="400"><tspan x="729"> </tspan><tspan x="738"> </tspan><tspan x="747"> </tspan><tspan x="756"> </tspan><tspan x="765"> </tspan><tspan x="774"> </tspan><tspan x="783"> </tspan><tspan x="792"> </tspan><tspan x="801"> </tspan><tspan x="810"> </tspan><tspan x="819"> </tspan><tspan x="828"> </tspan><tspan x="837"> </tspan><tspan x="846">▄</tspan><tspan x="855"> </tspan><tspan x="864"> </tspan><tspan x="873"> </tspan><tspan x="882"> </tspan><tspan x="891"> </tspan></text><rect x="0" y="280" width="549" height="20" fill="#0a0a0a"/><text y="295" fill="#ffffff" font-weight="400"><tspan x="0"> </tspan><tspan x="9"> </tspan><tspan x="18"> </tspan><tspan x="27"> </tspan><tspan x="36"> </tspan><tspan x="45"> </tspan><tspan x="54"> </tspan><tspan x="63"> </tspan><tspan x="72"> </tspan><tspan x="81"> </tspan><tspan x="90"> </tspan><tspan x="99"> </tspan><tspan x="108"> </tspan><tspan x="117"> </tspan><tspan x="126"> </tspan><tspan x="135"> </tspan><tspan x="144"> </tspan><tspan x="153"> </tspan><tspan x="162"> </tspan><tspan x="171"> </tspan><tspan x="180"> </tspan><tspan x="189"> </tspan><tspan x="198"> </tspan><tspan x="207"> </tspan><tspan x="216"> </tspan><tspan x="225"> </tspan><tspan x="234"> </tspan><tspan x="243"> </tspan><tspan x="252"> </tspan><tspan x="261"> </tspan><tspan x="270"> </tspan><tspan x="279"> </tspan><tspan x="288"> </tspan><tspan x="297"> </tspan><tspan x="306"> </tspan><tspan x="315"> </tspan><tspan x="324"> </tspan><tspan x="333"> </tspan><tspan x="342"> </tspan><tspan x="351"> </tspan><tspan x="360"> </tspan><tspan x="369"> </tspan><tspan x="378"> </tspan><tspan x="387"> </tspan><tspan x="396"> </tspan><tspan x="405"> </tspan><tspan x="414"> </tspan><tspan x="423"> </tspan><tspan x="432"> </tspan><tspan x="441"> </tspan><tspan x="450"> </tspan><tspan x="459"> </tspan><tspan x="468"> </tspan><tspan x="477"> </tspan><tspan x="486"> </tspan><tspan x="495"> </tspan><tspan x="504"> </tspan><tspan x="513"> </tspan><tspan x="522"> </tspan><tspan x="531"> </tspan><tspan x="540"> </tspan></text><rect x="549" y="280" width="171" height="20" fill="#0a0a0a"/><text y="295" fill="#808080" font-weight="400"><tspan x="549">█</tspan><tspan x="558">▀</tspan><tspan x="567">▀</tspan><tspan x="576">█</tspan><tspan x="585"> </tspan><tspan x="594">█</tspan><tspan x="603">▀</tspan><tspan x="612">▀</tspan><tspan x="621">█</tspan><tspan x="630"> </tspan><tspan x="639">█</tspan><tspan x="648">▀</tspan><tspan x="657">▀</tspan><tspan x="666">█</tspan><tspan x="675"> </tspan><tspan x="684">█</tspan><tspan x="693">▀</tspan><tspan x="702">▀</tspan><tspan x="711">▄</tspan></text><rect x="720" y="280" width="9" height="20" fill="#0a0a0a"/><text y="295" fill="#ffffff" font-weight="400"><tspan x="720"> </tspan></text><rect x="729" y="280" width="171" height="20" fill="#0a0a0a"/><text y="295" fill="#eeeeee" font-weight="400"><tspan x="729">█</tspan><tspan x="738">▀</tspan><tspan x="747">▀</tspan><tspan x="756">▀</tspan><tspan x="765"> </tspan><tspan x="774">█</tspan><tspan x="783">▀</tspan><tspan x="792">▀</tspan><tspan x="801">█</tspan><tspan x="810"> </tspan><tspan x="819">█</tspan><tspan x="828">▀</tspan><tspan x="837">▀</tspan><tspan x="846">█</tspan><tspan x="855"> </tspan><tspan x="864">█</tspan><tspan x="873">▀</tspan><tspan x="882">▀</tspan><tspan x="891">█</tspan></text><rect x="0" y="300" width="549" height="20" fill="#0a0a0a"/><text y="315" fill="#ffffff" font-weight="400"><tspan x="0"> </tspan><tspan x="9"> </tspan><tspan x="18"> </tspan><tspan x="27"> </tspan><tspan x="36"> </tspan><tspan x="45"> </tspan><tspan x="54"> </tspan><tspan x="63"> </tspan><tspan x="72"> </tspan><tspan x="81"> </tspan><tspan x="90"> </tspan><tspan x="99"> </tspan><tspan x="108"> </tspan><tspan x="117"> </tspan><tspan x="126"> </tspan><tspan x="135"> </tspan><tspan x="144"> </tspan><tspan x="153"> </tspan><tspan x="162"> </tspan><tspan x="171"> </tspan><tspan x="180"> </tspan><tspan x="189"> </tspan><tspan x="198"> </tspan><tspan x="207"> </tspan><tspan x="216"> </tspan><tspan x="225"> </tspan><tspan x="234"> </tspan><tspan x="243"> </tspan><tspan x="252"> </tspan><tspan x="261"> </tspan><tspan x="270"> </tspan><tspan x="279"> </tspan><tspan x="288"> </tspan><tspan x="297"> </tspan><tspan x="306"> </tspan><tspan x="315"> </tspan><tspan x="324"> </tspan><tspan x="333"> </tspan><tspan x="342"> </tspan><tspan x="351"> </tspan><tspan x="360"> </tspan><tspan x="369"> </tspan><tspan x="378"> </tspan><tspan x="387"> </tspan><tspan x="396"> </tspan><tspan x="405"> </tspan><tspan x="414"> </tspan><tspan x="423"> </tspan><tspan x="432"> </tspan><tspan x="441"> </tspan><tspan x="450"> </tspan><tspan x="459"> </tspan><tspan x="468"> </tspan><tspan x="477"> </tspan><tspan x="486"> </tspan><tspan x="495"> </tspan><tspan x="504"> </tspan><tspan x="513"> </tspan><tspan x="522"> </tspan><tspan x="531"> </tspan><tspan x="540"> </tspan></text><rect x="549" y="300" width="9" height="20" fill="#0a0a0a"/><text y="315" fill="#808080" font-weight="400"><tspan x="549">█</tspan></text><rect x="558" y="300" width="18" height="20" fill="#282828"/><text y="315" fill="#808080" font-weight="400"><tspan x="558"> </tspan><tspan x="567"> </tspan></text><rect x="576" y="300" width="27" height="20" fill="#0a0a0a"/><text y="315" fill="#808080" font-weight="400"><tspan x="576">█</tspan><tspan x="585"> </tspan><tspan x="594">█</tspan></text><rect x="603" y="300" width="18" height="20" fill="#282828"/><text y="315" fill="#808080" font-weight="400"><tspan x="603"> </tspan><tspan x="612"> </tspan></text><rect x="621" y="300" width="27" height="20" fill="#0a0a0a"/><text y="315" fill="#808080" font-weight="400"><tspan x="621">█</tspan><tspan x="630"> </tspan><tspan x="639">█</tspan></text><rect x="648" y="300" width="27" height="20" fill="#282828"/><text y="315" fill="#808080" font-weight="400"><tspan x="648">▀</tspan><tspan x="657">▀</tspan><tspan x="666">▀</tspan></text><rect x="675" y="300" width="18" height="20" fill="#0a0a0a"/><text y="315" fill="#808080" font-weight="400"><tspan x="675"> </tspan><tspan x="684">█</tspan></text><rect x="693" y="300" width="18" height="20" fill="#282828"/><text y="315" fill="#808080" font-weight="400"><tspan x="693"> </tspan><tspan x="702"> </tspan></text><rect x="711" y="300" width="9" height="20" fill="#0a0a0a"/><text y="315" fill="#808080" font-weight="400"><tspan x="711">█</tspan></text><rect x="720" y="300" width="9" height="20" fill="#0a0a0a"/><text y="315" fill="#ffffff" font-weight="400"><tspan x="720"> </tspan></text><rect x="729" y="300" width="9" height="20" fill="#0a0a0a"/><text y="315" fill="#eeeeee" font-weight="400"><tspan x="729">█</tspan></text><rect x="738" y="300" width="27" height="20" fill="#434343"/><text y="315" fill="#eeeeee" font-weight="400"><tspan x="738"> </tspan><tspan x="747"> </tspan><tspan x="756"> </tspan></text><rect x="765" y="300" width="18" height="20" fill="#0a0a0a"/><text y="315" fill="#eeeeee" font-weight="400"><tspan x="765"> </tspan><tspan x="774">█</tspan></text><rect x="783" y="300" width="18" height="20" fill="#434343"/><text y="315" fill="#eeeeee" font-weight="400"><tspan x="783"> </tspan><tspan x="792"> </tspan></text><rect x="801" y="300" width="27" height="20" fill="#0a0a0a"/><text y="315" fill="#eeeeee" font-weight="400"><tspan x="801">█</tspan><tspan x="810"> </tspan><tspan x="819">█</tspan></text><rect x="828" y="300" width="18" height="20" fill="#434343"/><text y="315" fill="#eeeeee" font-weight="400"><tspan x="828"> </tspan><tspan x="837"> </tspan></text><rect x="846" y="300" width="27" height="20" fill="#0a0a0a"/><text y="315" fill="#eeeeee" font-weight="400"><tspan x="846">█</tspan><tspan x="855"> </tspan><tspan x="864">█</tspan></text><rect x="873" y="300" width="27" height="20" fill="#434343"/><text y="315" fill="#eeeeee" font-weight="400"><tspan x="873">▀</tspan><tspan x="882">▀</tspan><tspan x="891">▀</tspan></text><rect x="0" y="320" width="549" height="20" fill="#0a0a0a"/><text y="335" fill="#ffffff" font-weight="400"><tspan x="0"> </tspan><tspan x="9"> </tspan><tspan x="18"> </tspan><tspan x="27"> </tspan><tspan x="36"> </tspan><tspan x="45"> </tspan><tspan x="54"> </tspan><tspan x="63"> </tspan><tspan x="72"> </tspan><tspan x="81"> </tspan><tspan x="90"> </tspan><tspan x="99"> </tspan><tspan x="108"> </tspan><tspan x="117"> </tspan><tspan x="126"> </tspan><tspan x="135"> </tspan><tspan x="144"> </tspan><tspan x="153"> </tspan><tspan x="162"> </tspan><tspan x="171"> </tspan><tspan x="180"> </tspan><tspan x="189"> </tspan><tspan x="198"> </tspan><tspan x="207"> </tspan><tspan x="216"> </tspan><tspan x="225"> </tspan><tspan x="234"> </tspan><tspan x="243"> </tspan><tspan x="252"> </tspan><tspan x="261"> </tspan><tspan x="270"> </tspan><tspan x="279"> </tspan><tspan x="288"> </tspan><tspan x="297"> </tspan><tspan x="306"> </tspan><tspan x="315"> </tspan><tspan x="324"> </tspan><tspan x="333"> </tspan><tspan x="342"> </tspan><tspan x="351"> </tspan><tspan x="360"> </tspan><tspan x="369"> </tspan><tspan x="378"> </tspan><tspan x="387"> </tspan><tspan x="396"> </tspan><tspan x="405"> </tspan><tspan x="414"> </tspan><tspan x="423"> </tspan><tspan x="432"> </tspan><tspan x="441"> </tspan><tspan x="450"> </tspan><tspan x="459"> </tspan><tspan x="468"> </tspan><tspan x="477"> </tspan><tspan x="486"> </tspan><tspan x="495"> </tspan><tspan x="504"> </tspan><tspan x="513"> </tspan><tspan x="522"> </tspan><tspan x="531"> </tspan><tspan x="540"> </tspan></text><rect x="549" y="320" width="144" height="20" fill="#0a0a0a"/><text y="335" fill="#808080" font-weight="400"><tspan x="549">▀</tspan><tspan x="558">▀</tspan><tspan x="567">▀</tspan><tspan x="576">▀</tspan><tspan x="585"> </tspan><tspan x="594">█</tspan><tspan x="603">▀</tspan><tspan x="612">▀</tspan><tspan x="621">▀</tspan><tspan x="630"> </tspan><tspan x="639">▀</tspan><tspan x="648">▀</tspan><tspan x="657">▀</tspan><tspan x="666">▀</tspan><tspan x="675"> </tspan><tspan x="684">▀</tspan></text><rect x="693" y="320" width="18" height="20" fill="#0a0a0a"/><text y="335" fill="#282828" font-weight="400"><tspan x="693">▀</tspan><tspan x="702">▀</tspan></text><rect x="711" y="320" width="9" height="20" fill="#0a0a0a"/><text y="335" fill="#808080" font-weight="400"><tspan x="711">▀</tspan></text><rect x="720" y="320" width="9" height="20" fill="#0a0a0a"/><text y="335" fill="#ffffff" font-weight="400"><tspan x="720"> </tspan></text><rect x="729" y="320" width="171" height="20" fill="#0a0a0a"/><text y="335" fill="#eeeeee" font-weight="400"><tspan x="729">▀</tspan><tspan x="738">▀</tspan><tspan x="747">▀</tspan><tspan x="756">▀</tspan><tspan x="765"> </tspan><tspan x="774">▀</tspan><tspan x="783">▀</tspan><tspan x="792">▀</tspan><tspan x="801">▀</tspan><tspan x="810"> </tspan><tspan x="819">▀</tspan><tspan x="828">▀</tspan><tspan x="837">▀</tspan><tspan x="846">▀</tspan><tspan x="855"> </tspan><tspan x="864">▀</tspan><tspan x="873">▀</tspan><tspan x="882">▀</tspan><tspan x="891">▀</tspan></text><rect x="0" y="380" width="387" height="20" fill="#0a0a0a"/><text y="395" fill="#ffffff" font-weight="400"><tspan x="0"> </tspan><tspan x="9"> </tspan><tspan x="18"> </tspan><tspan x="27"> </tspan><tspan x="36"> </tspan><tspan x="45"> </tspan><tspan x="54"> </tspan><tspan x="63"> </tspan><tspan x="72"> </tspan><tspan x="81"> </tspan><tspan x="90"> </tspan><tspan x="99"> </tspan><tspan x="108"> </tspan><tspan x="117"> </tspan><tspan x="126"> </tspan><tspan x="135"> </tspan><tspan x="144"> </tspan><tspan x="153"> </tspan><tspan x="162"> </tspan><tspan x="171"> </tspan><tspan x="180"> </tspan><tspan x="189"> </tspan><tspan x="198"> </tspan><tspan x="207"> </tspan><tspan x="216"> </tspan><tspan x="225"> </tspan><tspan x="234"> </tspan><tspan x="243"> </tspan><tspan x="252"> </tspan><tspan x="261"> </tspan><tspan x="270"> </tspan><tspan x="279"> </tspan><tspan x="288"> </tspan><tspan x="297"> </tspan><tspan x="306"> </tspan><tspan x="315"> </tspan><tspan x="324"> </tspan><tspan x="333"> </tspan><tspan x="342"> </tspan><tspan x="351"> </tspan><tspan x="360"> </tspan><tspan x="369"> </tspan><tspan x="378"> </tspan></text><rect x="387" y="380" width="9" height="20" fill="#0a0a0a"/><text y="395" fill="#5c9cf5" font-weight="400"><tspan x="387">┃</tspan></text><rect x="396" y="380" width="666" height="20" fill="#1e1e1e"/><text y="395" fill="#ffffff" font-weight="400"><tspan x="396"> </tspan><tspan x="405"> </tspan><tspan x="414"> </tspan><tspan x="423"> </tspan><tspan x="432"> </tspan><tspan x="441"> </tspan><tspan x="450"> </tspan><tspan x="459"> </tspan><tspan x="468"> </tspan><tspan x="477"> </tspan><tspan x="486"> </tspan><tspan x="495"> </tspan><tspan x="504"> </tspan><tspan x="513"> </tspan><tspan x="522"> </tspan><tspan x="531"> </tspan><tspan x="540"> </tspan><tspan x="549"> </tspan><tspan x="558"> </tspan><tspan x="567"> </tspan><tspan x="576"> </tspan><tspan x="585"> </tspan><tspan x="594"> </tspan><tspan x="603"> </tspan><tspan x="612"> </tspan><tspan x="621"> </tspan><tspan x="630"> </tspan><tspan x="639"> </tspan><tspan x="648"> </tspan><tspan x="657"> </tspan><tspan x="666"> </tspan><tspan x="675"> </tspan><tspan x="684"> </tspan><tspan x="693"> </tspan><tspan x="702"> </tspan><tspan x="711"> </tspan><tspan x="720"> </tspan><tspan x="729"> </tspan><tspan x="738"> </tspan><tspan x="747"> </tspan><tspan x="756"> </tspan><tspan x="765"> </tspan><tspan x="774"> </tspan><tspan x="783"> </tspan><tspan x="792"> </tspan><tspan x="801"> </tspan><tspan x="810"> </tspan><tspan x="819"> </tspan><tspan x="828"> </tspan><tspan x="837"> </tspan><tspan x="846"> </tspan><tspan x="855"> </tspan><tspan x="864"> </tspan><tspan x="873"> </tspan><tspan x="882"> </tspan><tspan x="891"> </tspan><tspan x="900"> </tspan><tspan x="909"> </tspan><tspan x="918"> </tspan><tspan x="927"> </tspan><tspan x="936"> </tspan><tspan x="945"> </tspan><tspan x="954"> </tspan><tspan x="963"> </tspan><tspan x="972"> </tspan><tspan x="981"> </tspan><tspan x="990"> </tspan><tspan x="999"> </tspan><tspan x="1008"> </tspan><tspan x="1017"> </tspan><tspan x="1026"> </tspan><tspan x="1035"> </tspan><tspan x="1044"> </tspan><tspan x="1053"> </tspan></text><rect x="0" y="400" width="387" height="20" fill="#0a0a0a"/><text y="415" fill="#ffffff" font-weight="400"><tspan x="0"> </tspan><tspan x="9"> </tspan><tspan x="18"> </tspan><tspan x="27"> </tspan><tspan x="36"> </tspan><tspan x="45"> </tspan><tspan x="54"> </tspan><tspan x="63"> </tspan><tspan x="72"> </tspan><tspan x="81"> </tspan><tspan x="90"> </tspan><tspan x="99"> </tspan><tspan x="108"> </tspan><tspan x="117"> </tspan><tspan x="126"> </tspan><tspan x="135"> </tspan><tspan x="144"> </tspan><tspan x="153"> </tspan><tspan x="162"> </tspan><tspan x="171"> </tspan><tspan x="180"> </tspan><tspan x="189"> </tspan><tspan x="198"> </tspan><tspan x="207"> </tspan><tspan x="216"> </tspan><tspan x="225"> </tspan><tspan x="234"> </tspan><tspan x="243"> </tspan><tspan x="252"> </tspan><tspan x="261"> </tspan><tspan x="270"> </tspan><tspan x="279"> </tspan><tspan x="288"> </tspan><tspan x="297"> </tspan><tspan x="306"> </tspan><tspan x="315"> </tspan><tspan x="324"> </tspan><tspan x="333"> </tspan><tspan x="342"> </tspan><tspan x="351"> </tspan><tspan x="360"> </tspan><tspan x="369"> </tspan><tspan x="378"> </tspan></text><rect x="387" y="400" width="9" height="20" fill="#0a0a0a"/><text y="415" fill="#5c9cf5" font-weight="400"><tspan x="387">┃</tspan></text><rect x="396" y="400" width="18" height="20" fill="#1e1e1e"/><text y="415" fill="#ffffff" font-weight="400"><tspan x="396"> </tspan><tspan x="405"> </tspan></text><rect x="414" y="400" width="378" height="20" fill="#1e1e1e"/><text y="415" fill="#808080" font-weight="400"><tspan x="414">A</tspan><tspan x="423">s</tspan><tspan x="432">k</tspan><tspan x="441"> </tspan><tspan x="450">a</tspan><tspan x="459">n</tspan><tspan x="468">y</tspan><tspan x="477">t</tspan><tspan x="486">h</tspan><tspan x="495">i</tspan><tspan x="504">n</tspan><tspan x="513">g</tspan><tspan x="522">…</tspan><tspan x="531"> </tspan><tspan x="540">&quot;</tspan><tspan x="549">F</tspan><tspan x="558">i</tspan><tspan x="567">x</tspan><tspan x="576"> </tspan><tspan x="585">a</tspan><tspan x="594"> </tspan><tspan x="603">T</tspan><tspan x="612">O</tspan><tspan x="621">D</tspan><tspan x="630">O</tspan><tspan x="639"> </tspan><tspan x="648">i</tspan><tspan x="657">n</tspan><tspan x="666"> </tspan><tspan x="675">t</tspan><tspan x="684">h</tspan><tspan x="693">e</tspan><tspan x="702"> </tspan><tspan x="711">c</tspan><tspan x="720">o</tspan><tspan x="729">d</tspan><tspan x="738">e</tspan><tspan x="747">b</tspan><tspan x="756">a</tspan><tspan x="765">s</tspan><tspan x="774">e</tspan><tspan x="783">&quot;</tspan></text><rect x="792" y="400" width="270" height="20" fill="#1e1e1e"/><text y="415" fill="#ffffff" font-weight="400"><tspan x="792"> </tspan><tspan x="801"> </tspan><tspan x="810"> </tspan><tspan x="819"> </tspan><tspan x="828"> </tspan><tspan x="837"> </tspan><tspan x="846"> </tspan><tspan x="855"> </tspan><tspan x="864"> </tspan><tspan x="873"> </tspan><tspan x="882"> </tspan><tspan x="891"> </tspan><tspan x="900"> </tspan><tspan x="909"> </tspan><tspan x="918"> </tspan><tspan x="927"> </tspan><tspan x="936"> </tspan><tspan x="945"> </tspan><tspan x="954"> </tspan><tspan x="963"> </tspan><tspan x="972"> </tspan><tspan x="981"> </tspan><tspan x="990"> </tspan><tspan x="999"> </tspan><tspan x="1008"> </tspan><tspan x="1017"> </tspan><tspan x="1026"> </tspan><tspan x="1035"> </tspan><tspan x="1044"> </tspan><tspan x="1053"> </tspan></text><rect x="0" y="420" width="387" height="20" fill="#0a0a0a"/><text y="435" fill="#ffffff" font-weight="400"><tspan x="0"> </tspan><tspan x="9"> </tspan><tspan x="18"> </tspan><tspan x="27"> </tspan><tspan x="36"> </tspan><tspan x="45"> </tspan><tspan x="54"> </tspan><tspan x="63"> </tspan><tspan x="72"> </tspan><tspan x="81"> </tspan><tspan x="90"> </tspan><tspan x="99"> </tspan><tspan x="108"> </tspan><tspan x="117"> </tspan><tspan x="126"> </tspan><tspan x="135"> </tspan><tspan x="144"> </tspan><tspan x="153"> </tspan><tspan x="162"> </tspan><tspan x="171"> </tspan><tspan x="180"> </tspan><tspan x="189"> </tspan><tspan x="198"> </tspan><tspan x="207"> </tspan><tspan x="216"> </tspan><tspan x="225"> </tspan><tspan x="234"> </tspan><tspan x="243"> </tspan><tspan x="252"> </tspan><tspan x="261"> </tspan><tspan x="270"> </tspan><tspan x="279"> </tspan><tspan x="288"> </tspan><tspan x="297"> </tspan><tspan x="306"> </tspan><tspan x="315"> </tspan><tspan x="324"> </tspan><tspan x="333"> </tspan><tspan x="342"> </tspan><tspan x="351"> </tspan><tspan x="360"> </tspan><tspan x="369"> </tspan><tspan x="378"> </tspan></text><rect x="387" y="420" width="9" height="20" fill="#0a0a0a"/><text y="435" fill="#5c9cf5" font-weight="400"><tspan x="387">┃</tspan></text><rect x="396" y="420" width="666" height="20" fill="#1e1e1e"/><text y="435" fill="#ffffff" font-weight="400"><tspan x="396"> </tspan><tspan x="405"> </tspan><tspan x="414"> </tspan><tspan x="423"> </tspan><tspan x="432"> </tspan><tspan x="441"> </tspan><tspan x="450"> </tspan><tspan x="459"> </tspan><tspan x="468"> </tspan><tspan x="477"> </tspan><tspan x="486"> </tspan><tspan x="495"> </tspan><tspan x="504"> </tspan><tspan x="513"> </tspan><tspan x="522"> </tspan><tspan x="531"> </tspan><tspan x="540"> </tspan><tspan x="549"> </tspan><tspan x="558"> </tspan><tspan x="567"> </tspan><tspan x="576"> </tspan><tspan x="585"> </tspan><tspan x="594"> </tspan><tspan x="603"> </tspan><tspan x="612"> </tspan><tspan x="621"> </tspan><tspan x="630"> </tspan><tspan x="639"> </tspan><tspan x="648"> </tspan><tspan x="657"> </tspan><tspan x="666"> </tspan><tspan x="675"> </tspan><tspan x="684"> </tspan><tspan x="693"> </tspan><tspan x="702"> </tspan><tspan x="711"> </tspan><tspan x="720"> </tspan><tspan x="729"> </tspan><tspan x="738"> </tspan><tspan x="747"> </tspan><tspan x="756"> </tspan><tspan x="765"> </tspan><tspan x="774"> </tspan><tspan x="783"> </tspan><tspan x="792"> </tspan><tspan x="801"> </tspan><tspan x="810"> </tspan><tspan x="819"> </tspan><tspan x="828"> </tspan><tspan x="837"> </tspan><tspan x="846"> </tspan><tspan x="855"> </tspan><tspan x="864"> </tspan><tspan x="873"> </tspan><tspan x="882"> </tspan><tspan x="891"> </tspan><tspan x="900"> </tspan><tspan x="909"> </tspan><tspan x="918"> </tspan><tspan x="927"> </tspan><tspan x="936"> </tspan><tspan x="945"> </tspan><tspan x="954"> </tspan><tspan x="963"> </tspan><tspan x="972"> </tspan><tspan x="981"> </tspan><tspan x="990"> </tspan><tspan x="999"> </tspan><tspan x="1008"> </tspan><tspan x="1017"> </tspan><tspan x="1026"> </tspan><tspan x="1035"> </tspan><tspan x="1044"> </tspan><tspan x="1053"> </tspan></text><rect x="0" y="440" width="387" height="20" fill="#0a0a0a"/><text y="455" fill="#ffffff" font-weight="400"><tspan x="0"> </tspan><tspan x="9"> </tspan><tspan x="18"> </tspan><tspan x="27"> </tspan><tspan x="36"> </tspan><tspan x="45"> </tspan><tspan x="54"> </tspan><tspan x="63"> </tspan><tspan x="72"> </tspan><tspan x="81"> </tspan><tspan x="90"> </tspan><tspan x="99"> </tspan><tspan x="108"> </tspan><tspan x="117"> </tspan><tspan x="126"> </tspan><tspan x="135"> </tspan><tspan x="144"> </tspan><tspan x="153"> </tspan><tspan x="162"> </tspan><tspan x="171"> </tspan><tspan x="180"> </tspan><tspan x="189"> </tspan><tspan x="198"> </tspan><tspan x="207"> </tspan><tspan x="216"> </tspan><tspan x="225"> </tspan><tspan x="234"> </tspan><tspan x="243"> </tspan><tspan x="252"> </tspan><tspan x="261"> </tspan><tspan x="270"> </tspan><tspan x="279"> </tspan><tspan x="288"> </tspan><tspan x="297"> </tspan><tspan x="306"> </tspan><tspan x="315"> </tspan><tspan x="324"> </tspan><tspan x="333"> </tspan><tspan x="342"> </tspan><tspan x="351"> </tspan><tspan x="360"> </tspan><tspan x="369"> </tspan><tspan x="378"> </tspan></text><rect x="387" y="440" width="9" height="20" fill="#0a0a0a"/><text y="455" fill="#5c9cf5" font-weight="400"><tspan x="387">┃</tspan></text><rect x="396" y="440" width="18" height="20" fill="#1e1e1e"/><text y="455" fill="#ffffff" font-weight="400"><tspan x="396"> </tspan><tspan x="405"> </tspan></text><rect x="414" y="440" width="45" height="20" fill="#1e1e1e"/><text y="455" fill="#5c9cf5" font-weight="400"><tspan x="414">B</tspan><tspan x="423">u</tspan><tspan x="432">i</tspan><tspan x="441">l</tspan><tspan x="450">d</tspan></text><rect x="459" y="440" width="9" height="20" fill="#1e1e1e"/><text y="455" fill="#ffffff" font-weight="400"><tspan x="459"> </tspan></text><rect x="468" y="440" width="9" height="20" fill="#1e1e1e"/><text y="455" fill="#808080" font-weight="400"><tspan x="468">·</tspan></text><rect x="477" y="440" width="9" height="20" fill="#1e1e1e"/><text y="455" fill="#ffffff" font-weight="400"><tspan x="477"> </tspan></text><rect x="486" y="440" width="90" height="20" fill="#1e1e1e"/><text y="455" fill="#eeeeee" font-weight="400"><tspan x="486">B</tspan><tspan x="495">i</tspan><tspan x="504">g</tspan><tspan x="513"> </tspan><tspan x="522">P</tspan><tspan x="531">i</tspan><tspan x="540">c</tspan><tspan x="549">k</tspan><tspan x="558">l</tspan><tspan x="567">e</tspan></text><rect x="576" y="440" width="9" height="20" fill="#1e1e1e"/><text y="455" fill="#ffffff" font-weight="400"><tspan x="576"> </tspan></text><rect x="585" y="440" width="108" height="20" fill="#1e1e1e"/><text y="455" fill="#808080" font-weight="400"><tspan x="585">O</tspan><tspan x="594">p</tspan><tspan x="603">e</tspan><tspan x="612">n</tspan><tspan x="621">C</tspan><tspan x="630">o</tspan><tspan x="639">d</tspan><tspan x="648">e</tspan><tspan x="657"> </tspan><tspan x="666">Z</tspan><tspan x="675">e</tspan><tspan x="684">n</tspan></text><rect x="693" y="440" width="369" height="20" fill="#1e1e1e"/><text y="455" fill="#ffffff" font-weight="400"><tspan x="693"> </tspan><tspan x="702"> </tspan><tspan x="711"> </tspan><tspan x="720"> </tspan><tspan x="729"> </tspan><tspan x="738"> </tspan><tspan x="747"> </tspan><tspan x="756"> </tspan><tspan x="765"> </tspan><tspan x="774"> </tspan><tspan x="783"> </tspan><tspan x="792"> </tspan><tspan x="801"> </tspan><tspan x="810"> </tspan><tspan x="819"> </tspan><tspan x="828"> </tspan><tspan x="837"> </tspan><tspan x="846"> </tspan><tspan x="855"> </tspan><tspan x="864"> </tspan><tspan x="873"> </tspan><tspan x="882"> </tspan><tspan x="891"> </tspan><tspan x="900"> </tspan><tspan x="909"> </tspan><tspan x="918"> </tspan><tspan x="927"> </tspan><tspan x="936"> </tspan><tspan x="945"> </tspan><tspan x="954"> </tspan><tspan x="963"> </tspan><tspan x="972"> </tspan><tspan x="981"> </tspan><tspan x="990"> </tspan><tspan x="999"> </tspan><tspan x="1008"> </tspan><tspan x="1017"> </tspan><tspan x="1026"> </tspan><tspan x="1035"> </tspan><tspan x="1044"> </tspan><tspan x="1053"> </tspan></text><rect x="0" y="460" width="387" height="20" fill="#0a0a0a"/><text y="475" fill="#ffffff" font-weight="400"><tspan x="0"> </tspan><tspan x="9"> </tspan><tspan x="18"> </tspan><tspan x="27"> </tspan><tspan x="36"> </tspan><tspan x="45"> </tspan><tspan x="54"> </tspan><tspan x="63"> </tspan><tspan x="72"> </tspan><tspan x="81"> </tspan><tspan x="90"> </tspan><tspan x="99"> </tspan><tspan x="108"> </tspan><tspan x="117"> </tspan><tspan x="126"> </tspan><tspan x="135"> </tspan><tspan x="144"> </tspan><tspan x="153"> </tspan><tspan x="162"> </tspan><tspan x="171"> </tspan><tspan x="180"> </tspan><tspan x="189"> </tspan><tspan x="198"> </tspan><tspan x="207"> </tspan><tspan x="216"> </tspan><tspan x="225"> </tspan><tspan x="234"> </tspan><tspan x="243"> </tspan><tspan x="252"> </tspan><tspan x="261"> </tspan><tspan x="270"> </tspan><tspan x="279"> </tspan><tspan x="288"> </tspan><tspan x="297"> </tspan><tspan x="306"> </tspan><tspan x="315"> </tspan><tspan x="324"> </tspan><tspan x="333"> </tspan><tspan x="342"> </tspan><tspan x="351"> </tspan><tspan x="360"> </tspan><tspan x="369"> </tspan><tspan x="378"> </tspan></text><rect x="387" y="460" width="9" height="20" fill="#0a0a0a"/><text y="475" fill="#5c9cf5" font-weight="400"><tspan x="387">╹</tspan></text><rect x="396" y="460" width="666" height="20" fill="#0a0a0a"/><text y="475" fill="#1e1e1e" font-weight="400"><tspan x="396">▀</tspan><tspan x="405">▀</tspan><tspan x="414">▀</tspan><tspan x="423">▀</tspan><tspan x="432">▀</tspan><tspan x="441">▀</tspan><tspan x="450">▀</tspan><tspan x="459">▀</tspan><tspan x="468">▀</tspan><tspan x="477">▀</tspan><tspan x="486">▀</tspan><tspan x="495">▀</tspan><tspan x="504">▀</tspan><tspan x="513">▀</tspan><tspan x="522">▀</tspan><tspan x="531">▀</tspan><tspan x="540">▀</tspan><tspan x="549">▀</tspan><tspan x="558">▀</tspan><tspan x="567">▀</tspan><tspan x="576">▀</tspan><tspan x="585">▀</tspan><tspan x="594">▀</tspan><tspan x="603">▀</tspan><tspan x="612">▀</tspan><tspan x="621">▀</tspan><tspan x="630">▀</tspan><tspan x="639">▀</tspan><tspan x="648">▀</tspan><tspan x="657">▀</tspan><tspan x="666">▀</tspan><tspan x="675">▀</tspan><tspan x="684">▀</tspan><tspan x="693">▀</tspan><tspan x="702">▀</tspan><tspan x="711">▀</tspan><tspan x="720">▀</tspan><tspan x="729">▀</tspan><tspan x="738">▀</tspan><tspan x="747">▀</tspan><tspan x="756">▀</tspan><tspan x="765">▀</tspan><tspan x="774">▀</tspan><tspan x="783">▀</tspan><tspan x="792">▀</tspan><tspan x="801">▀</tspan><tspan x="810">▀</tspan><tspan x="819">▀</tspan><tspan x="828">▀</tspan><tspan x="837">▀</tspan><tspan x="846">▀</tspan><tspan x="855">▀</tspan><tspan x="864">▀</tspan><tspan x="873">▀</tspan><tspan x="882">▀</tspan><tspan x="891">▀</tspan><tspan x="900">▀</tspan><tspan x="909">▀</tspan><tspan x="918">▀</tspan><tspan x="927">▀</tspan><tspan x="936">▀</tspan><tspan x="945">▀</tspan><tspan x="954">▀</tspan><tspan x="963">▀</tspan><tspan x="972">▀</tspan><tspan x="981">▀</tspan><tspan x="990">▀</tspan><tspan x="999">▀</tspan><tspan x="1008">▀</tspan><tspan x="1017">▀</tspan><tspan x="1026">▀</tspan><tspan x="1035">▀</tspan><tspan x="1044">▀</tspan><tspan x="1053">▀</tspan></text><rect x="0" y="480" width="819" height="20" fill="#0a0a0a"/><text y="495" fill="#ffffff" font-weight="400"><tspan x="0"> </tspan><tspan x="9"> </tspan><tspan x="18"> </tspan><tspan x="27"> </tspan><tspan x="36"> </tspan><tspan x="45"> </tspan><tspan x="54"> </tspan><tspan x="63"> </tspan><tspan x="72"> </tspan><tspan x="81"> </tspan><tspan x="90"> </tspan><tspan x="99"> </tspan><tspan x="108"> </tspan><tspan x="117"> </tspan><tspan x="126"> </tspan><tspan x="135"> </tspan><tspan x="144"> </tspan><tspan x="153"> </tspan><tspan x="162"> </tspan><tspan x="171"> </tspan><tspan x="180"> </tspan><tspan x="189"> </tspan><tspan x="198"> </tspan><tspan x="207"> </tspan><tspan x="216"> </tspan><tspan x="225"> </tspan><tspan x="234"> </tspan><tspan x="243"> </tspan><tspan x="252"> </tspan><tspan x="261"> </tspan><tspan x="270"> </tspan><tspan x="279"> </tspan><tspan x="288"> </tspan><tspan x="297"> </tspan><tspan x="306"> </tspan><tspan x="315"> </tspan><tspan x="324"> </tspan><tspan x="333"> </tspan><tspan x="342"> </tspan><tspan x="351"> </tspan><tspan x="360"> </tspan><tspan x="369"> </tspan><tspan x="378"> </tspan><tspan x="387"> </tspan><tspan x="396"> </tspan><tspan x="405"> </tspan><tspan x="414"> </tspan><tspan x="423"> </tspan><tspan x="432"> </tspan><tspan x="441"> </tspan><tspan x="450"> </tspan><tspan x="459"> </tspan><tspan x="468"> </tspan><tspan x="477"> </tspan><tspan x="486"> </tspan><tspan x="495"> </tspan><tspan x="504"> </tspan><tspan x="513"> </tspan><tspan x="522"> </tspan><tspan x="531"> </tspan><tspan x="540"> </tspan><tspan x="549"> </tspan><tspan x="558"> </tspan><tspan x="567"> </tspan><tspan x="576"> </tspan><tspan x="585"> </tspan><tspan x="594"> </tspan><tspan x="603"> </tspan><tspan x="612"> </tspan><tspan x="621"> </tspan><tspan x="630"> </tspan><tspan x="639"> </tspan><tspan x="648"> </tspan><tspan x="657"> </tspan><tspan x="666"> </tspan><tspan x="675"> </tspan><tspan x="684"> </tspan><tspan x="693"> </tspan><tspan x="702"> </tspan><tspan x="711"> </tspan><tspan x="720"> </tspan><tspan x="729"> </tspan><tspan x="738"> </tspan><tspan x="747"> </tspan><tspan x="756"> </tspan><tspan x="765"> </tspan><tspan x="774"> </tspan><tspan x="783"> </tspan><tspan x="792"> </tspan><tspan x="801"> </tspan><tspan x="810"> </tspan></text><rect x="819" y="480" width="36" height="20" fill="#0a0a0a"/><text y="495" fill="#eeeeee" font-weight="400"><tspan x="819">t</tspan><tspan x="828">a</tspan><tspan x="837">b</tspan><tspan x="846"> </tspan></text><rect x="855" y="480" width="54" height="20" fill="#0a0a0a"/><text y="495" fill="#808080" font-weight="400"><tspan x="855">a</tspan><tspan x="864">g</tspan><tspan x="873">e</tspan><tspan x="882">n</tspan><tspan x="891">t</tspan><tspan x="900">s</tspan></text><rect x="909" y="480" width="18" height="20" fill="#0a0a0a"/><text y="495" fill="#ffffff" font-weight="400"><tspan x="909"> </tspan><tspan x="918"> </tspan></text><rect x="927" y="480" width="63" height="20" fill="#0a0a0a"/><text y="495" fill="#eeeeee" font-weight="400"><tspan x="927">c</tspan><tspan x="936">t</tspan><tspan x="945">r</tspan><tspan x="954">l</tspan><tspan x="963">+</tspan><tspan x="972">p</tspan><tspan x="981"> </tspan></text><rect x="990" y="480" width="72" height="20" fill="#0a0a0a"/><text y="495" fill="#808080" font-weight="400"><tspan x="990">c</tspan><tspan x="999">o</tspan><tspan x="1008">m</tspan><tspan x="1017">m</tspan><tspan x="1026">a</tspan><tspan x="1035">n</tspan><tspan x="1044">d</tspan><tspan x="1053">s</tspan></text><rect x="0" y="560" width="468" height="20" fill="#0a0a0a"/><text y="575" fill="#ffffff" font-weight="400"><tspan x="0"> </tspan><tspan x="9"> </tspan><tspan x="18"> </tspan><tspan x="27"> </tspan><tspan x="36"> </tspan><tspan x="45"> </tspan><tspan x="54"> </tspan><tspan x="63"> </tspan><tspan x="72"> </tspan><tspan x="81"> </tspan><tspan x="90"> </tspan><tspan x="99"> </tspan><tspan x="108"> </tspan><tspan x="117"> </tspan><tspan x="126"> </tspan><tspan x="135"> </tspan><tspan x="144"> </tspan><tspan x="153"> </tspan><tspan x="162"> </tspan><tspan x="171"> </tspan><tspan x="180"> </tspan><tspan x="189"> </tspan><tspan x="198"> </tspan><tspan x="207"> </tspan><tspan x="216"> </tspan><tspan x="225"> </tspan><tspan x="234"> </tspan><tspan x="243"> </tspan><tspan x="252"> </tspan><tspan x="261"> </tspan><tspan x="270"> </tspan><tspan x="279"> </tspan><tspan x="288"> </tspan><tspan x="297"> </tspan><tspan x="306"> </tspan><tspan x="315"> </tspan><tspan x="324"> </tspan><tspan x="333"> </tspan><tspan x="342"> </tspan><tspan x="351"> </tspan><tspan x="360"> </tspan><tspan x="369"> </tspan><tspan x="378"> </tspan><tspan x="387"> </tspan><tspan x="396"> </tspan><tspan x="405"> </tspan><tspan x="414"> </tspan><tspan x="423"> </tspan><tspan x="432"> </tspan><tspan x="441"> </tspan><tspan x="450"> </tspan><tspan x="459"> </tspan></text><rect x="468" y="560" width="54" height="20" fill="#0a0a0a"/><text y="575" fill="#f5a742" font-weight="400"><tspan x="468">●</tspan><tspan x="477"> </tspan><tspan x="486">T</tspan><tspan x="495">i</tspan><tspan x="504">p</tspan><tspan x="513"> </tspan></text><rect x="522" y="560" width="36" height="20" fill="#0a0a0a"/><text y="575" fill="#808080" font-weight="400"><tspan x="522">R</tspan><tspan x="531">u</tspan><tspan x="540">n</tspan><tspan x="549"> </tspan></text><rect x="558" y="560" width="72" height="20" fill="#0a0a0a"/><text y="575" fill="#eeeeee" font-weight="400"><tspan x="558">/</tspan><tspan x="567">c</tspan><tspan x="576">o</tspan><tspan x="585">n</tspan><tspan x="594">n</tspan><tspan x="603">e</tspan><tspan x="612">c</tspan><tspan x="621">t</tspan></text><rect x="630" y="560" width="351" height="20" fill="#0a0a0a"/><text y="575" fill="#808080" font-weight="400"><tspan x="630"> </tspan><tspan x="639">t</tspan><tspan x="648">o</tspan><tspan x="657"> </tspan><tspan x="666">a</tspan><tspan x="675">d</tspan><tspan x="684">d</tspan><tspan x="693"> </tspan><tspan x="702">a</tspan><tspan x="711">n</tspan><tspan x="720"> </tspan><tspan x="729">A</tspan><tspan x="738">I</tspan><tspan x="747"> </tspan><tspan x="756">p</tspan><tspan x="765">r</tspan><tspan x="774">o</tspan><tspan x="783">v</tspan><tspan x="792">i</tspan><tspan x="801">d</tspan><tspan x="810">e</tspan><tspan x="819">r</tspan><tspan x="828"> </tspan><tspan x="837">a</tspan><tspan x="846">n</tspan><tspan x="855">d</tspan><tspan x="864"> </tspan><tspan x="873">s</tspan><tspan x="882">t</tspan><tspan x="891">a</tspan><tspan x="900">r</tspan><tspan x="909">t</tspan><tspan x="918"> </tspan><tspan x="927">c</tspan><tspan x="936">o</tspan><tspan x="945">d</tspan><tspan x="954">i</tspan><tspan x="963">n</tspan><tspan x="972">g</tspan></text><rect x="0" y="760" width="18" height="20" fill="#0a0a0a"/><text y="775" fill="#ffffff" font-weight="400"><tspan x="0"> </tspan><tspan x="9"> </tspan></text><rect x="18" y="760" width="387" height="20" fill="#0a0a0a"/><text y="775" fill="#808080" font-weight="400"><tspan x="18">/</tspan><tspan x="27">p</tspan><tspan x="36">r</tspan><tspan x="45">i</tspan><tspan x="54">v</tspan><tspan x="63">a</tspan><tspan x="72">t</tspan><tspan x="81">e</tspan><tspan x="90">/</tspan><tspan x="99">t</tspan><tspan x="108">m</tspan><tspan x="117">p</tspan><tspan x="126">/</tspan><tspan x="135">b</tspan><tspan x="144">o</tspan><tspan x="153">n</tspan><tspan x="162">e</tspan><tspan x="171">-</tspan><tspan x="180">d</tspan><tspan x="189">e</tspan><tspan x="198">s</tspan><tspan x="207">i</tspan><tspan x="216">g</tspan><tspan x="225">n</tspan><tspan x="234">-</tspan><tspan x="243">r</tspan><tspan x="252">e</tspan><tspan x="261">s</tspan><tspan x="270">e</tspan><tspan x="279">a</tspan><tspan x="288">r</tspan><tspan x="297">c</tspan><tspan x="306">h</tspan><tspan x="315">/</tspan><tspan x="324">w</tspan><tspan x="333">o</tspan><tspan x="342">r</tspan><tspan x="351">k</tspan><tspan x="360">s</tspan><tspan x="369">p</tspan><tspan x="378">a</tspan><tspan x="387">c</tspan><tspan x="396">e</tspan></text><rect x="405" y="760" width="954" height="20" fill="#0a0a0a"/><text y="775" fill="#ffffff" font-weight="400"><tspan x="405"> </tspan><tspan x="414"> </tspan><tspan x="423"> </tspan><tspan x="432"> </tspan><tspan x="441"> </tspan><tspan x="450"> </tspan><tspan x="459"> </tspan><tspan x="468"> </tspan><tspan x="477"> </tspan><tspan x="486"> </tspan><tspan x="495"> </tspan><tspan x="504"> </tspan><tspan x="513"> </tspan><tspan x="522"> </tspan><tspan x="531"> </tspan><tspan x="540"> </tspan><tspan x="549"> </tspan><tspan x="558"> </tspan><tspan x="567"> </tspan><tspan x="576"> </tspan><tspan x="585"> </tspan><tspan x="594"> </tspan><tspan x="603"> </tspan><tspan x="612"> </tspan><tspan x="621"> </tspan><tspan x="630"> </tspan><tspan x="639"> </tspan><tspan x="648"> </tspan><tspan x="657"> </tspan><tspan x="666"> </tspan><tspan x="675"> </tspan><tspan x="684"> </tspan><tspan x="693"> </tspan><tspan x="702"> </tspan><tspan x="711"> </tspan><tspan x="720"> </tspan><tspan x="729"> </tspan><tspan x="738"> </tspan><tspan x="747"> </tspan><tspan x="756"> </tspan><tspan x="765"> </tspan><tspan x="774"> </tspan><tspan x="783"> </tspan><tspan x="792"> </tspan><tspan x="801"> </tspan><tspan x="810"> </tspan><tspan x="819"> </tspan><tspan x="828"> </tspan><tspan x="837"> </tspan><tspan x="846"> </tspan><tspan x="855"> </tspan><tspan x="864"> </tspan><tspan x="873"> </tspan><tspan x="882"> </tspan><tspan x="891"> </tspan><tspan x="900"> </tspan><tspan x="909"> </tspan><tspan x="918"> </tspan><tspan x="927"> </tspan><tspan x="936"> </tspan><tspan x="945"> </tspan><tspan x="954"> </tspan><tspan x="963"> </tspan><tspan x="972"> </tspan><tspan x="981"> </tspan><tspan x="990"> </tspan><tspan x="999"> </tspan><tspan x="1008"> </tspan><tspan x="1017"> </tspan><tspan x="1026"> </tspan><tspan x="1035"> </tspan><tspan x="1044"> </tspan><tspan x="1053"> </tspan><tspan x="1062"> </tspan><tspan x="1071"> </tspan><tspan x="1080"> </tspan><tspan x="1089"> </tspan><tspan x="1098"> </tspan><tspan x="1107"> </tspan><tspan x="1116"> </tspan><tspan x="1125"> </tspan><tspan x="1134"> </tspan><tspan x="1143"> </tspan><tspan x="1152"> </tspan><tspan x="1161"> </tspan><tspan x="1170"> </tspan><tspan x="1179"> </tspan><tspan x="1188"> </tspan><tspan x="1197"> </tspan><tspan x="1206"> </tspan><tspan x="1215"> </tspan><tspan x="1224"> </tspan><tspan x="1233"> </tspan><tspan x="1242"> </tspan><tspan x="1251"> </tspan><tspan x="1260"> </tspan><tspan x="1269"> </tspan><tspan x="1278"> </tspan><tspan x="1287"> </tspan><tspan x="1296"> </tspan><tspan x="1305"> </tspan><tspan x="1314"> </tspan><tspan x="1323"> </tspan><tspan x="1332"> </tspan><tspan x="1341"> </tspan><tspan x="1350"> </tspan></text><rect x="1359" y="760" width="63" height="20" fill="#0a0a0a"/><text y="775" fill="#808080" font-weight="400"><tspan x="1359">1</tspan><tspan x="1368">.</tspan><tspan x="1377">1</tspan><tspan x="1386">8</tspan><tspan x="1395">.</tspan><tspan x="1404">2</tspan><tspan x="1413">9</tspan></text></g></svg>