<svg xmlns="http://www.w3.org/2000/svg" width="1440" height="800" viewBox="0 0 1440 800" role="img"><title>BONE · independent visual direction</title><g font-family="Menlo, monospace" font-size="14"><rect x="0" y="0" width="1440" height="800" fill="#171b1c"/><rect x="0" y="0" width="216" height="800" fill="#131718"/><text y="35" fill="#e5e2d9" font-weight="600"><tspan x="18">B</tspan><tspan x="27">O</tspan><tspan x="36">N</tspan><tspan x="45">E</tspan></text><text y="75" fill="#a1aaa8" font-weight="400"><tspan x="18">S</tspan><tspan x="27">e</tspan><tspan x="36">s</tspan><tspan x="45">s</tspan><tspan x="54">i</tspan><tspan x="63">o</tspan><tspan x="72">n</tspan><tspan x="81">s</tspan></text><rect x="9" y="120" width="198" height="40" fill="#263234"/><text y="135" fill="#e5e2d9" font-weight="600"><tspan x="27">N</tspan><tspan x="36">e</tspan><tspan x="45">w</tspan><tspan x="54"> </tspan><tspan x="63">c</tspan><tspan x="72">o</tspan><tspan x="81">n</tspan><tspan x="90">v</tspan><tspan x="99">e</tspan><tspan x="108">r</tspan><tspan x="117">s</tspan><tspan x="126">a</tspan><tspan x="135">t</tspan><tspan x="144">i</tspan><tspan x="153">o</tspan><tspan x="162">n</tspan></text><text y="155" fill="#a1aaa8" font-weight="400"><tspan x="27">R</tspan><tspan x="36">e</tspan><tspan x="45">a</tspan><tspan x="54">d</tspan><tspan x="63">y</tspan></text><text y="775" fill="#a1aaa8" font-weight="400"><tspan x="18">w</tspan><tspan x="27">o</tspan><tspan x="36">r</tspan><tspan x="45">k</tspan><tspan x="54">s</tspan><tspan x="63">p</tspan><tspan x="72">a</tspan><tspan x="81">c</tspan><tspan x="90">e</tspan><tspan x="99"> </tspan><tspan x="108">/</tspan><tspan x="117"> </tspan><tspan x="126">B</tspan><tspan x="135">O</tspan><tspan x="144">N</tspan><tspan x="153">E</tspan></text><rect x="1080" y="0" width="360" height="800" fill="#131718"/><text y="35" fill="#e5e2d9" font-weight="600"><tspan x="243">N</tspan><tspan x="252">e</tspan><tspan x="261">w</tspan><tspan x="270"> </tspan><tspan x="279">c</tspan><tspan x="288">o</tspan><tspan x="297">n</tspan><tspan x="306">v</tspan><tspan x="315">e</tspan><tspan x="324">r</tspan><tspan x="333">s</tspan><tspan x="342">a</tspan><tspan x="351">t</tspan><tspan x="360">i</tspan><tspan x="369">o</tspan><tspan x="378">n</tspan></text><text y="35" fill="#a1aaa8" font-weight="400"><tspan x="1008">R</tspan><tspan x="1017">e</tspan><tspan x="1026">a</tspan><tspan x="1035">d</tspan><tspan x="1044">y</tspan></text><text y="75" fill="#3c4748" font-weight="400"><tspan x="243">─</tspan><tspan x="252">─</tspan><tspan x="261">─</tspan><tspan x="270">─</tspan><tspan x="279">─</tspan><tspan x="288">─</tspan><tspan x="297">─</tspan><tspan x="306">─</tspan><tspan x="315">─</tspan><tspan x="324">─</tspan><tspan x="333">─</tspan><tspan x="342">─</tspan><tspan x="351">─</tspan><tspan x="360">─</tspan><tspan x="369">─</tspan><tspan x="378">─</tspan><tspan x="387">─</tspan><tspan x="396">─</tspan><tspan x="405">─</tspan><tspan x="414">─</tspan><tspan x="423">─</tspan><tspan x="432">─</tspan><tspan x="441">─</tspan><tspan x="450">─</tspan><tspan x="459">─</tspan><tspan x="468">─</tspan><tspan x="477">─</tspan><tspan x="486">─</tspan><tspan x="495">─</tspan><tspan x="504">─</tspan><tspan x="513">─</tspan><tspan x="522">─</tspan><tspan x="531">─</tspan><tspan x="540">─</tspan><tspan x="549">─</tspan><tspan x="558">─</tspan><tspan x="567">─</tspan><tspan x="576">─</tspan><tspan x="585">─</tspan><tspan x="594">─</tspan><tspan x="603">─</tspan><tspan x="612">─</tspan><tspan x="621">─</tspan><tspan x="630">─</tspan><tspan x="639">─</tspan><tspan x="648">─</tspan><tspan x="657">─</tspan><tspan x="666">─</tspan><tspan x="675">─</tspan><tspan x="684">─</tspan><tspan x="693">─</tspan><tspan x="702">─</tspan><tspan x="711">─</tspan><tspan x="720">─</tspan><tspan x="729">─</tspan><tspan x="738">─</tspan><tspan x="747">─</tspan><tspan x="756">─</tspan><tspan x="765">─</tspan><tspan x="774">─</tspan><tspan x="783">─</tspan><tspan x="792">─</tspan><tspan x="801">─</tspan><tspan x="810">─</tspan><tspan x="819">─</tspan><tspan x="828">─</tspan><tspan x="837">─</tspan><tspan x="846">─</tspan><tspan x="855">─</tspan><tspan x="864">─</tspan><tspan x="873">─</tspan><tspan x="882">─</tspan><tspan x="891">─</tspan><tspan x="900">─</tspan><tspan x="909">─</tspan><tspan x="918">─</tspan><tspan x="927">─</tspan><tspan x="936">─</tspan><tspan x="945">─</tspan><tspan x="954">─</tspan><tspan x="963">─</tspan><tspan x="972">─</tspan><tspan x="981">─</tspan><tspan x="990">─</tspan><tspan x="999">─</tspan><tspan x="1008">─</tspan><tspan x="1017">─</tspan><tspan x="1026">─</tspan><tspan x="1035">─</tspan><tspan x="1044">─</tspan></text><text y="295" fill="#e5e2d9" font-weight="600"><tspan x="261">A</tspan><tspan x="270"> </tspan><tspan x="279">p</tspan><tspan x="288">l</tspan><tspan x="297">a</tspan><tspan x="306">c</tspan><tspan x="315">e</tspan><tspan x="324"> </tspan><tspan x="333">t</tspan><tspan x="342">o</tspan><tspan x="351"> </tspan><tspan x="360">w</tspan><tspan x="369">o</tspan><tspan x="378">r</tspan><tspan x="387">k</tspan><tspan x="396"> </tspan><tspan x="405">t</tspan><tspan x="414">h</tspan><tspan x="423">r</tspan><tspan x="432">o</tspan><tspan x="441">u</tspan><tspan x="450">g</tspan><tspan x="459">h</tspan><tspan x="468"> </tspan><tspan x="477">a</tspan><tspan x="486"> </tspan><tspan x="495">p</tspan><tspan x="504">r</tspan><tspan x="513">o</tspan><tspan x="522">b</tspan><tspan x="531">l</tspan><tspan x="540">e</tspan><tspan x="549">m</tspan><tspan x="558">.</tspan></text><text y="335" fill="#a1aaa8" font-weight="400"><tspan x="261">A</tspan><tspan x="270">s</tspan><tspan x="279">k</tspan><tspan x="288">,</tspan><tspan x="297"> </tspan><tspan x="306">i</tspan><tspan x="315">n</tspan><tspan x="324">s</tspan><tspan x="333">p</tspan><tspan x="342">e</tspan><tspan x="351">c</tspan><tspan x="360">t</tspan><tspan x="369">,</tspan><tspan x="378"> </tspan><tspan x="387">a</tspan><tspan x="396">n</tspan><tspan x="405">d</tspan><tspan x="414"> </tspan><tspan x="423">c</tspan><tspan x="432">o</tspan><tspan x="441">n</tspan><tspan x="450">t</tspan><tspan x="459">i</tspan><tspan x="468">n</tspan><tspan x="477">u</tspan><tspan x="486">e</tspan><tspan x="495"> </tspan><tspan x="504">i</tspan><tspan x="513">n</tspan><tspan x="522"> </tspan><tspan x="531">t</tspan><tspan x="540">h</tspan><tspan x="549">e</tspan><tspan x="558"> </tspan><tspan x="567">s</tspan><tspan x="576">a</tspan><tspan x="585">m</tspan><tspan x="594">e</tspan><tspan x="603"> </tspan><tspan x="612">c</tspan><tspan x="621">o</tspan><tspan x="630">n</tspan><tspan x="639">v</tspan><tspan x="648">e</tspan><tspan x="657">r</tspan><tspan x="666">s</tspan><tspan x="675">a</tspan><tspan x="684">t</tspan><tspan x="693">i</tspan><tspan x="702">o</tspan><tspan x="711">n</tspan><tspan x="720">.</tspan></text><text y="695" fill="#94b9b3" font-weight="400"><tspan x="243">─</tspan><tspan x="252">─</tspan><tspan x="261">─</tspan><tspan x="270">─</tspan><tspan x="279">─</tspan><tspan x="288">─</tspan><tspan x="297">─</tspan><tspan x="306">─</tspan><tspan x="315">─</tspan><tspan x="324">─</tspan><tspan x="333">─</tspan><tspan x="342">─</tspan><tspan x="351">─</tspan><tspan x="360">─</tspan><tspan x="369">─</tspan><tspan x="378">─</tspan><tspan x="387">─</tspan><tspan x="396">─</tspan><tspan x="405">─</tspan><tspan x="414">─</tspan><tspan x="423">─</tspan><tspan x="432">─</tspan><tspan x="441">─</tspan><tspan x="450">─</tspan><tspan x="459">─</tspan><tspan x="468">─</tspan><tspan x="477">─</tspan><tspan x="486">─</tspan><tspan x="495">─</tspan><tspan x="504">─</tspan><tspan x="513">─</tspan><tspan x="522">─</tspan><tspan x="531">─</tspan><tspan x="540">─</tspan><tspan x="549">─</tspan><tspan x="558">─</tspan><tspan x="567">─</tspan><tspan x="576">─</tspan><tspan x="585">─</tspan><tspan x="594">─</tspan><tspan x="603">─</tspan><tspan x="612">─</tspan><tspan x="621">─</tspan><tspan x="630">─</tspan><tspan x="639">─</tspan><tspan x="648">─</tspan><tspan x="657">─</tspan><tspan x="666">─</tspan><tspan x="675">─</tspan><tspan x="684">─</tspan><tspan x="693">─</tspan><tspan x="702">─</tspan><tspan x="711">─</tspan><tspan x="720">─</tspan><tspan x="729">─</tspan><tspan x="738">─</tspan><tspan x="747">─</tspan><tspan x="756">─</tspan><tspan x="765">─</tspan><tspan x="774">─</tspan><tspan x="783">─</tspan><tspan x="792">─</tspan><tspan x="801">─</tspan><tspan x="810">─</tspan><tspan x="819">─</tspan><tspan x="828">─</tspan><tspan x="837">─</tspan><tspan x="846">─</tspan><tspan x="855">─</tspan><tspan x="864">─</tspan><tspan x="873">─</tspan><tspan x="882">─</tspan><tspan x="891">─</tspan><tspan x="900">─</tspan><tspan x="909">─</tspan><tspan x="918">─</tspan><tspan x="927">─</tspan><tspan x="936">─</tspan><tspan x="945">─</tspan><tspan x="954">─</tspan><tspan x="963">─</tspan><tspan x="972">─</tspan><tspan x="981">─</tspan><tspan x="990">─</tspan><tspan x="999">─</tspan><tspan x="1008">─</tspan><tspan x="1017">─</tspan><tspan x="1026">─</tspan><tspan x="1035">─</tspan><tspan x="1044">─</tspan></text><rect x="243" y="700" width="810" height="60" fill="#1d2324"/><text y="735" fill="#a1aaa8" font-weight="400"><tspan x="261">D</tspan><tspan x="270">e</tspan><tspan x="279">s</tspan><tspan x="288">c</tspan><tspan x="297">r</tspan><tspan x="306">i</tspan><tspan x="315">b</tspan><tspan x="324">e</tspan><tspan x="333"> </tspan><tspan x="342">t</tspan><tspan x="351">h</tspan><tspan x="360">e</tspan><tspan x="369"> </tspan><tspan x="378">n</tspan><tspan x="387">e</tspan><tspan x="396">x</tspan><tspan x="405">t</tspan><tspan x="414"> </tspan><tspan x="423">s</tspan><tspan x="432">t</tspan><tspan x="441">e</tspan><tspan x="450">p</tspan><tspan x="459">…</tspan></text><text y="735" fill="#e5e2d9" font-weight="400"><tspan x="261">▏</tspan></text><text y="775" fill="#a1aaa8" font-weight="400"><tspan x="243">m</tspan><tspan x="252">o</tspan><tspan x="261">d</tspan><tspan x="270">e</tspan><tspan x="279">l</tspan><tspan x="288"> </tspan><tspan x="297">/</tspan><tspan x="306"> </tspan><tspan x="315">c</tspan><tspan x="324">o</tspan><tspan x="333">n</tspan><tspan x="342">f</tspan><tspan x="351">i</tspan><tspan x="360">g</tspan><tspan x="369">u</tspan><tspan x="378">r</tspan><tspan x="387">e</tspan><tspan x="396">d</tspan></text><text y="775" fill="#e5e2d9" font-weight="400"><tspan x="963">e</tspan><tspan x="972">n</tspan><tspan x="981">t</tspan><tspan x="990">e</tspan><tspan x="999">r</tspan><tspan x="1008"> </tspan><tspan x="1017">s</tspan><tspan x="1026">e</tspan><tspan x="1035">n</tspan><tspan x="1044">d</tspan></text><text y="795" fill="#a1aaa8" font-weight="400"><tspan x="963">/</tspan><tspan x="972"> </tspan><tspan x="981">c</tspan><tspan x="990">o</tspan><tspan x="999">m</tspan><tspan x="1008">m</tspan><tspan x="1017">a</tspan><tspan x="1026">n</tspan><tspan x="1035">d</tspan><tspan x="1044">s</tspan></text></g></svg>