<svg xmlns="http://www.w3.org/2000/svg" width="1344.0" height="800" viewBox="0 0 1344.0 800" role="img"><title>BONE · proposed direction A</title><g font-family="Menlo, monospace" font-size="14"><rect x="0.0" y="0" width="1344.0" height="800" fill="#111214"/><rect x="0.0" y="0" width="201.60000000000002" height="800" fill="#17181b"/><text y="35" fill="#d1c4a4" font-weight="600"><tspan x="16.8">B</tspan><tspan x="25.200000000000003">O</tspan><tspan x="33.6">N</tspan><tspan x="42.0">E</tspan></text><text y="75" fill="#999ca5" font-weight="400"><tspan x="16.8">会</tspan><tspan x="33.6">话</tspan></text><rect x="8.4" y="100" width="184.8" height="40" fill="#2b2d32"/><text y="115" fill="#e8e8e6" font-weight="600"><tspan x="25.200000000000003">草</tspan><tspan x="42.0">稿</tspan><tspan x="58.800000000000004">恢</tspan><tspan x="75.60000000000001">复</tspan></text><text y="135" fill="#999ca5" font-weight="400"><tspan x="25.200000000000003">就</tspan><tspan x="42.0">绪</tspan></text><text y="175" fill="#999ca5" font-weight="400"><tspan x="25.200000000000003">C</tspan><tspan x="33.6">o</tspan><tspan x="42.0">n</tspan><tspan x="50.400000000000006">t</tspan><tspan x="58.800000000000004">e</tspan><tspan x="67.2">x</tspan><tspan x="75.60000000000001">t</tspan><tspan x="84.0"> </tspan><tspan x="92.4">e</tspan><tspan x="100.80000000000001">n</tspan><tspan x="109.2">g</tspan><tspan x="117.60000000000001">i</tspan><tspan x="126.0">n</tspan><tspan x="134.4">e</tspan></text><text y="195" fill="#d1c4a4" font-weight="400"><tspan x="25.200000000000003">需</tspan><tspan x="42.0">要</tspan><tspan x="58.800000000000004">回</tspan><tspan x="75.60000000000001">答</tspan></text><text y="235" fill="#999ca5" font-weight="400"><tspan x="25.200000000000003">修</tspan><tspan x="42.0">复</tspan><tspan x="58.800000000000004">启</tspan><tspan x="75.60000000000001">动</tspan><tspan x="92.4">错</tspan><tspan x="109.2">误</tspan></text><text y="255" fill="#999ca5" font-weight="400"><tspan x="25.200000000000003">草</tspan><tspan x="42.0">稿</tspan></text><text y="295" fill="#999ca5" font-weight="400"><tspan x="25.200000000000003">A</tspan><tspan x="33.6">P</tspan><tspan x="42.0">I</tspan><tspan x="50.400000000000006"> </tspan><tspan x="58.800000000000004">超</tspan><tspan x="75.60000000000001">时</tspan><tspan x="92.4">处</tspan><tspan x="109.2">理</tspan></text><text y="315" fill="#999ca5" font-weight="400"><tspan x="25.200000000000003">就</tspan><tspan x="42.0">绪</tspan></text><text y="355" fill="#999ca5" font-weight="400"><tspan x="25.200000000000003">工</tspan><tspan x="42.0">具</tspan><tspan x="58.800000000000004">权</tspan><tspan x="75.60000000000001">限</tspan></text><text y="375" fill="#999ca5" font-weight="400"><tspan x="25.200000000000003">就</tspan><tspan x="42.0">绪</tspan></text><text y="415" fill="#999ca5" font-weight="400"><tspan x="25.200000000000003">会</tspan><tspan x="42.0">话</tspan><tspan x="58.800000000000004">存</tspan><tspan x="75.60000000000001">储</tspan></text><text y="435" fill="#999ca5" font-weight="400"><tspan x="25.200000000000003">就</tspan><tspan x="42.0">绪</tspan></text><text y="775" fill="#999ca5" font-weight="400"><tspan x="16.8">~</tspan><tspan x="25.200000000000003">/</tspan><tspan x="33.6">B</tspan><tspan x="42.0">O</tspan><tspan x="50.400000000000006">N</tspan><tspan x="58.800000000000004">E</tspan></text><rect x="1008.0" y="0" width="336.0" height="800" fill="#17181b"/><text y="35" fill="#e8e8e6" font-weight="600"><tspan x="226.8">修</tspan><tspan x="243.60000000000002">复</tspan><tspan x="260.40000000000003">会</tspan><tspan x="277.2">话</tspan><tspan x="294.0">切</tspan><tspan x="310.8">换</tspan><tspan x="327.6">后</tspan><tspan x="344.40000000000003">的</tspan><tspan x="361.2">草</tspan><tspan x="378.0">稿</tspan><tspan x="394.8">恢</tspan><tspan x="411.6">复</tspan></text><text y="75" fill="#999ca5" font-weight="400"><tspan x="243.60000000000002">↑</tspan><tspan x="252.0"> </tspan><tspan x="260.40000000000003">较</tspan><tspan x="277.2">早</tspan><tspan x="294.0">消</tspan><tspan x="310.8">息</tspan></text><rect x="226.8" y="100" width="756.0" height="60" fill="#1b1c1f"/><text y="135" fill="#e8e8e6" font-weight="400"><tspan x="243.60000000000002">切</tspan><tspan x="260.40000000000003">换</tspan><tspan x="277.2">会</tspan><tspan x="294.0">话</tspan><tspan x="310.8">时</tspan><tspan x="327.6">保</tspan><tspan x="344.40000000000003">留</tspan><tspan x="361.2">新</tspan><tspan x="378.0">草</tspan><tspan x="394.8">稿</tspan><tspan x="411.6">，</tspan><tspan x="428.40000000000003">补</tspan><tspan x="445.20000000000005">上</tspan><tspan x="462.0">回</tspan><tspan x="478.8">归</tspan><tspan x="495.6">测</tspan><tspan x="512.4">试</tspan><tspan x="529.2">。</tspan></text><text y="195" fill="#e8e8e6" font-weight="400"><tspan x="243.60000000000002">已</tspan><tspan x="260.40000000000003">按</tspan><tspan x="277.2">会</tspan><tspan x="294.0">话</tspan><tspan x="310.8">保</tspan><tspan x="327.6">存</tspan><tspan x="344.40000000000003">草</tspan><tspan x="361.2">稿</tspan><tspan x="378.0">；</tspan><tspan x="394.8">回</tspan><tspan x="411.6">执</tspan><tspan x="428.40000000000003">只</tspan><tspan x="445.20000000000005">清</tspan><tspan x="462.0">理</tspan><tspan x="478.8">对</tspan><tspan x="495.6">应</tspan><tspan x="512.4">版</tspan><tspan x="529.2">本</tspan><tspan x="546.0">。</tspan></text><text y="235" fill="#999ca5" font-weight="400"><tspan x="243.60000000000002">✓</tspan><tspan x="252.0"> </tspan><tspan x="260.40000000000003">读</tspan><tspan x="277.2">取</tspan><tspan x="294.0">完</tspan><tspan x="310.8">成</tspan><tspan x="327.6"> </tspan><tspan x="336.0"> </tspan><tspan x="344.40000000000003">·</tspan><tspan x="352.8"> </tspan><tspan x="361.2"> </tspan><tspan x="369.6">✓</tspan><tspan x="378.0"> </tspan><tspan x="386.40000000000003">修</tspan><tspan x="403.20000000000005">改</tspan><tspan x="420.0">完</tspan><tspan x="436.8">成</tspan></text><text y="275" fill="#e8e8e6" font-weight="600"><tspan x="243.60000000000002">涉</tspan><tspan x="260.40000000000003">及</tspan><tspan x="277.2">以</tspan><tspan x="294.0">下</tspan><tspan x="310.8">边</tspan><tspan x="327.6">界</tspan><tspan x="344.40000000000003">：</tspan></text><text y="315" fill="#e8e8e6" font-weight="400"><tspan x="243.60000000000002">•</tspan><tspan x="252.0"> </tspan><tspan x="260.40000000000003">A</tspan><tspan x="268.8"> </tspan><tspan x="277.2">提</tspan><tspan x="294.0">交</tspan><tspan x="310.8">后</tspan><tspan x="327.6">继</tspan><tspan x="344.40000000000003">续</tspan><tspan x="361.2">编</tspan><tspan x="378.0">辑</tspan><tspan x="394.8">，</tspan><tspan x="411.6">不</tspan><tspan x="428.40000000000003">受</tspan><tspan x="445.20000000000005">旧</tspan><tspan x="462.0">回</tspan><tspan x="478.8">执</tspan><tspan x="495.6">影</tspan><tspan x="512.4">响</tspan><tspan x="529.2">。</tspan></text><text y="335" fill="#e8e8e6" font-weight="400"><tspan x="243.60000000000002">•</tspan><tspan x="252.0"> </tspan><tspan x="260.40000000000003">切</tspan><tspan x="277.2">到</tspan><tspan x="294.0"> </tspan><tspan x="302.40000000000003">B</tspan><tspan x="310.8"> </tspan><tspan x="319.2">后</tspan><tspan x="336.0">收</tspan><tspan x="352.8">到</tspan><tspan x="369.6"> </tspan><tspan x="378.0">A</tspan><tspan x="386.40000000000003"> </tspan><tspan x="394.8">回</tspan><tspan x="411.6">执</tspan><tspan x="428.40000000000003">，</tspan><tspan x="445.20000000000005">只</tspan><tspan x="462.0">更</tspan><tspan x="478.8">新</tspan><tspan x="495.6"> </tspan><tspan x="504.0">A</tspan><tspan x="512.4">。</tspan></text><text y="355" fill="#e8e8e6" font-weight="400"><tspan x="243.60000000000002">•</tspan><tspan x="252.0"> </tspan><tspan x="260.40000000000003">中</tspan><tspan x="277.2">文</tspan><tspan x="294.0">组</tspan><tspan x="310.8">合</tspan><tspan x="327.6">输</tspan><tspan x="344.40000000000003">入</tspan><tspan x="361.2">不</tspan><tspan x="378.0">按</tspan><tspan x="394.8">字</tspan><tspan x="411.6">节</tspan><tspan x="428.40000000000003">截</tspan><tspan x="445.20000000000005">断</tspan><tspan x="462.0">。</tspan></text><rect x="226.8" y="400" width="756.0" height="60" fill="#1b1c1f"/><text y="435" fill="#e8e8e6" font-weight="400"><tspan x="243.60000000000002">重</tspan><tspan x="260.40000000000003">启</tspan><tspan x="277.2">后</tspan><tspan x="294.0">也</tspan><tspan x="310.8">要</tspan><tspan x="327.6">恢</tspan><tspan x="344.40000000000003">复</tspan><tspan x="361.2">，</tspan><tspan x="378.0">并</tspan><tspan x="394.8">保</tspan><tspan x="411.6">留</tspan><tspan x="428.40000000000003">光</tspan><tspan x="445.20000000000005">标</tspan><tspan x="462.0">位</tspan><tspan x="478.8">置</tspan><tspan x="495.6">。</tspan></text><text y="495" fill="#e8e8e6" font-weight="400"><tspan x="243.60000000000002">会</tspan><tspan x="260.40000000000003">将</tspan><tspan x="277.2">草</tspan><tspan x="294.0">稿</tspan><tspan x="310.8">与</tspan><tspan x="327.6">光</tspan><tspan x="344.40000000000003">标</tspan><tspan x="361.2">作</tspan><tspan x="378.0">为</tspan><tspan x="394.8">同</tspan><tspan x="411.6">一</tspan><tspan x="428.40000000000003">份</tspan><tspan x="445.20000000000005">会</tspan><tspan x="462.0">话</tspan><tspan x="478.8">状</tspan><tspan x="495.6">态</tspan><tspan x="512.4">保</tspan><tspan x="529.2">存</tspan><tspan x="546.0">。</tspan></text><text y="535" fill="#e8e8e6" font-weight="400"><tspan x="243.60000000000002">下</tspan><tspan x="260.40000000000003">一</tspan><tspan x="277.2">步</tspan><tspan x="294.0">先</tspan><tspan x="310.8">验</tspan><tspan x="327.6">证</tspan><tspan x="344.40000000000003">重</tspan><tspan x="361.2">启</tspan><tspan x="378.0">恢</tspan><tspan x="394.8">复</tspan><tspan x="411.6">，</tspan><tspan x="428.40000000000003">再</tspan><tspan x="445.20000000000005">检</tspan><tspan x="462.0">查</tspan><tspan x="478.8">窗</tspan><tspan x="495.6">口</tspan><tspan x="512.4">缩</tspan><tspan x="529.2">放</tspan><tspan x="546.0">。</tspan></text><text y="595" fill="#9fbcd5" font-weight="400"><tspan x="243.60000000000002">↓</tspan><tspan x="252.0"> </tspan><tspan x="260.40000000000003">回</tspan><tspan x="277.2">到</tspan><tspan x="294.0">最</tspan><tspan x="310.8">新</tspan></text><rect x="226.8" y="680" width="756.0" height="100" fill="#242424"/><text y="695" fill="#999ca5" font-weight="400"><tspan x="226.8">╭</tspan><tspan x="235.20000000000002">─</tspan><tspan x="243.60000000000002">─</tspan><tspan x="252.0">─</tspan><tspan x="260.40000000000003">─</tspan><tspan x="268.8">─</tspan><tspan x="277.2">─</tspan><tspan x="285.6">─</tspan><tspan x="294.0">─</tspan><tspan x="302.40000000000003">─</tspan><tspan x="310.8">─</tspan><tspan x="319.2">─</tspan><tspan x="327.6">─</tspan><tspan x="336.0">─</tspan><tspan x="344.40000000000003">─</tspan><tspan x="352.8">─</tspan><tspan x="361.2">─</tspan><tspan x="369.6">─</tspan><tspan x="378.0">─</tspan><tspan x="386.40000000000003">─</tspan><tspan x="394.8">─</tspan><tspan x="403.20000000000005">─</tspan><tspan x="411.6">─</tspan><tspan x="420.0">─</tspan><tspan x="428.40000000000003">─</tspan><tspan x="436.8">─</tspan><tspan x="445.20000000000005">─</tspan><tspan x="453.6">─</tspan><tspan x="462.0">─</tspan><tspan x="470.40000000000003">─</tspan><tspan x="478.8">─</tspan><tspan x="487.20000000000005">─</tspan><tspan x="495.6">─</tspan><tspan x="504.0">─</tspan><tspan x="512.4">─</tspan><tspan x="520.8000000000001">─</tspan><tspan x="529.2">─</tspan><tspan x="537.6">─</tspan><tspan x="546.0">─</tspan><tspan x="554.4">─</tspan><tspan x="562.8000000000001">─</tspan><tspan x="571.2">─</tspan><tspan x="579.6">─</tspan><tspan x="588.0">─</tspan><tspan x="596.4">─</tspan><tspan x="604.8000000000001">─</tspan><tspan x="613.2">─</tspan><tspan x="621.6">─</tspan><tspan x="630.0">─</tspan><tspan x="638.4">─</tspan><tspan x="646.8000000000001">─</tspan><tspan x="655.2">─</tspan><tspan x="663.6">─</tspan><tspan x="672.0">─</tspan><tspan x="680.4">─</tspan><tspan x="688.8000000000001">─</tspan><tspan x="697.2">─</tspan><tspan x="705.6">─</tspan><tspan x="714.0">─</tspan><tspan x="722.4">─</tspan><tspan x="730.8000000000001">─</tspan><tspan x="739.2">─</tspan><tspan x="747.6">─</tspan><tspan x="756.0">─</tspan><tspan x="764.4">─</tspan><tspan x="772.8000000000001">─</tspan><tspan x="781.2">─</tspan><tspan x="789.6">─</tspan><tspan x="798.0">─</tspan><tspan x="806.4000000000001">─</tspan><tspan x="814.8000000000001">─</tspan><tspan x="823.2">─</tspan><tspan x="831.6">─</tspan><tspan x="840.0">─</tspan><tspan x="848.4000000000001">─</tspan><tspan x="856.8000000000001">─</tspan><tspan x="865.2">─</tspan><tspan x="873.6">─</tspan><tspan x="882.0">─</tspan><tspan x="890.4000000000001">─</tspan><tspan x="898.8000000000001">─</tspan><tspan x="907.2">─</tspan><tspan x="915.6">─</tspan><tspan x="924.0">─</tspan><tspan x="932.4000000000001">─</tspan><tspan x="940.8000000000001">─</tspan><tspan x="949.2">─</tspan><tspan x="957.6">─</tspan><tspan x="966.0">─</tspan><tspan x="974.4000000000001">╮</tspan></text><text y="715" fill="#999ca5" font-weight="400"><tspan x="226.8">│</tspan></text><text y="715" fill="#999ca5" font-weight="400"><tspan x="974.4000000000001">│</tspan></text><text y="735" fill="#999ca5" font-weight="400"><tspan x="226.8">│</tspan></text><text y="735" fill="#999ca5" font-weight="400"><tspan x="974.4000000000001">│</tspan></text><text y="755" fill="#999ca5" font-weight="400"><tspan x="226.8">│</tspan></text><text y="755" fill="#999ca5" font-weight="400"><tspan x="974.4000000000001">│</tspan></text><text y="775" fill="#999ca5" font-weight="400"><tspan x="226.8">╰</tspan><tspan x="235.20000000000002">─</tspan><tspan x="243.60000000000002">─</tspan><tspan x="252.0">─</tspan><tspan x="260.40000000000003">─</tspan><tspan x="268.8">─</tspan><tspan x="277.2">─</tspan><tspan x="285.6">─</tspan><tspan x="294.0">─</tspan><tspan x="302.40000000000003">─</tspan><tspan x="310.8">─</tspan><tspan x="319.2">─</tspan><tspan x="327.6">─</tspan><tspan x="336.0">─</tspan><tspan x="344.40000000000003">─</tspan><tspan x="352.8">─</tspan><tspan x="361.2">─</tspan><tspan x="369.6">─</tspan><tspan x="378.0">─</tspan><tspan x="386.40000000000003">─</tspan><tspan x="394.8">─</tspan><tspan x="403.20000000000005">─</tspan><tspan x="411.6">─</tspan><tspan x="420.0">─</tspan><tspan x="428.40000000000003">─</tspan><tspan x="436.8">─</tspan><tspan x="445.20000000000005">─</tspan><tspan x="453.6">─</tspan><tspan x="462.0">─</tspan><tspan x="470.40000000000003">─</tspan><tspan x="478.8">─</tspan><tspan x="487.20000000000005">─</tspan><tspan x="495.6">─</tspan><tspan x="504.0">─</tspan><tspan x="512.4">─</tspan><tspan x="520.8000000000001">─</tspan><tspan x="529.2">─</tspan><tspan x="537.6">─</tspan><tspan x="546.0">─</tspan><tspan x="554.4">─</tspan><tspan x="562.8000000000001">─</tspan><tspan x="571.2">─</tspan><tspan x="579.6">─</tspan><tspan x="588.0">─</tspan><tspan x="596.4">─</tspan><tspan x="604.8000000000001">─</tspan><tspan x="613.2">─</tspan><tspan x="621.6">─</tspan><tspan x="630.0">─</tspan><tspan x="638.4">─</tspan><tspan x="646.8000000000001">─</tspan><tspan x="655.2">─</tspan><tspan x="663.6">─</tspan><tspan x="672.0">─</tspan><tspan x="680.4">─</tspan><tspan x="688.8000000000001">─</tspan><tspan x="697.2">─</tspan><tspan x="705.6">─</tspan><tspan x="714.0">─</tspan><tspan x="722.4">─</tspan><tspan x="730.8000000000001">─</tspan><tspan x="739.2">─</tspan><tspan x="747.6">─</tspan><tspan x="756.0">─</tspan><tspan x="764.4">─</tspan><tspan x="772.8000000000001">─</tspan><tspan x="781.2">─</tspan><tspan x="789.6">─</tspan><tspan x="798.0">─</tspan><tspan x="806.4000000000001">─</tspan><tspan x="814.8000000000001">─</tspan><tspan x="823.2">─</tspan><tspan x="831.6">─</tspan><tspan x="840.0">─</tspan><tspan x="848.4000000000001">─</tspan><tspan x="856.8000000000001">─</tspan><tspan x="865.2">─</tspan><tspan x="873.6">─</tspan><tspan x="882.0">─</tspan><tspan x="890.4000000000001">─</tspan><tspan x="898.8000000000001">─</tspan><tspan x="907.2">─</tspan><tspan x="915.6">─</tspan><tspan x="924.0">─</tspan><tspan x="932.4000000000001">─</tspan><tspan x="940.8000000000001">─</tspan><tspan x="949.2">─</tspan><tspan x="957.6">─</tspan><tspan x="966.0">─</tspan><tspan x="974.4000000000001">╯</tspan></text><text y="715" fill="#e8e8e6" font-weight="400"></text><text y="715" fill="#e8e8e6" font-weight="400"><tspan x="243.60000000000002">▏</tspan></text><text y="755" fill="#999ca5" font-weight="400"><tspan x="243.60000000000002">W</tspan><tspan x="252.0">o</tspan><tspan x="260.40000000000003">r</tspan><tspan x="268.8">k</tspan><tspan x="277.2">e</tspan><tspan x="285.6">r</tspan><tspan x="294.0"> </tspan><tspan x="302.40000000000003">·</tspan><tspan x="310.8"> </tspan><tspan x="319.2">G</tspan><tspan x="327.6">P</tspan><tspan x="336.0">T</tspan><tspan x="344.40000000000003">-</tspan><tspan x="352.8">5</tspan><tspan x="361.2">.</tspan><tspan x="369.6">5</tspan></text><text y="755" fill="#e8e8e6" font-weight="400"><tspan x="890.4000000000001">e</tspan><tspan x="898.8000000000001">n</tspan><tspan x="907.2">t</tspan><tspan x="915.6">e</tspan><tspan x="924.0">r</tspan><tspan x="932.4000000000001"> </tspan><tspan x="940.8000000000001">发</tspan><tspan x="957.6">送</tspan></text><text y="795" fill="#999ca5" font-weight="400"><tspan x="789.6">a</tspan><tspan x="798.0">l</tspan><tspan x="806.4000000000001">t</tspan><tspan x="814.8000000000001">+</tspan><tspan x="823.2">e</tspan><tspan x="831.6">n</tspan><tspan x="840.0">t</tspan><tspan x="848.4000000000001">e</tspan><tspan x="856.8000000000001">r</tspan><tspan x="865.2"> </tspan><tspan x="873.6">换</tspan><tspan x="890.4000000000001">行</tspan><tspan x="907.2"> </tspan><tspan x="915.6"> </tspan><tspan x="924.0"> </tspan><tspan x="932.4000000000001">/</tspan><tspan x="940.8000000000001"> </tspan><tspan x="949.2">命</tspan><tspan x="966.0">令</tspan></text></g></svg>