<svg xmlns="http://www.w3.org/2000/svg" width="1440" height="800" viewBox="0 0 1440 800"><title>BONE C · native input design study</title><g font-family="Menlo, monospace" font-size="14"><rect x="0" y="0" width="1440" height="800" fill="#232323"/><rect x="0" y="0" width="216" height="800" fill="#1a1a1a"/><rect x="1080" y="0" width="360" height="800" fill="#1a1a1a"/><text y="35" fill="#efefec" font-weight="600"><tspan x="27">B</tspan><tspan x="36">O</tspan><tspan x="45">N</tspan><tspan x="54">E</tspan></text><text y="95" fill="#b0b0ae" font-weight="400"><tspan x="27">会</tspan><tspan x="45">话</tspan></text><rect x="9" y="120" width="198" height="40" fill="#383838"/><text y="135" fill="#efefec" font-weight="600"><tspan x="27">草</tspan><tspan x="45">稿</tspan><tspan x="63">恢</tspan><tspan x="81">复</tspan></text><text y="155" fill="#888888" font-weight="400"><tspan x="27">执</tspan><tspan x="45">行</tspan><tspan x="63">中</tspan></text><text y="195" fill="#b0b0ae" font-weight="400"><tspan x="27">C</tspan><tspan x="36">o</tspan><tspan x="45">n</tspan><tspan x="54">t</tspan><tspan x="63">e</tspan><tspan x="72">x</tspan><tspan x="81">t</tspan><tspan x="90"> </tspan><tspan x="99">e</tspan><tspan x="108">n</tspan><tspan x="117">g</tspan><tspan x="126">i</tspan><tspan x="135">n</tspan><tspan x="144">e</tspan></text><text y="215" fill="#b8c7e4" font-weight="400"><tspan x="27">需</tspan><tspan x="45">要</tspan><tspan x="63">回</tspan><tspan x="81">答</tspan></text><text y="255" fill="#b0b0ae" font-weight="400"><tspan x="27">修</tspan><tspan x="45">复</tspan><tspan x="63">启</tspan><tspan x="81">动</tspan><tspan x="99">错</tspan><tspan x="117">误</tspan></text><text y="275" fill="#888888" font-weight="400"><tspan x="27">草</tspan><tspan x="45">稿</tspan></text><text y="315" fill="#b0b0ae" font-weight="400"><tspan x="27">A</tspan><tspan x="36">P</tspan><tspan x="45">I</tspan><tspan x="54"> </tspan><tspan x="63">超</tspan><tspan x="81">时</tspan><tspan x="99">处</tspan><tspan x="117">理</tspan></text><text y="335" fill="#888888" font-weight="400"><tspan x="27">已</tspan><tspan x="45">结</tspan><tspan x="63">束</tspan></text><text y="375" fill="#b0b0ae" font-weight="400"><tspan x="27">工</tspan><tspan x="45">具</tspan><tspan x="63">权</tspan><tspan x="81">限</tspan></text><text y="395" fill="#888888" font-weight="400"><tspan x="27">已</tspan><tspan x="45">结</tspan><tspan x="63">束</tspan></text><text y="435" fill="#b0b0ae" font-weight="400"><tspan x="27">会</tspan><tspan x="45">话</tspan><tspan x="63">存</tspan><tspan x="81">储</tspan></text><text y="455" fill="#888888" font-weight="400"><tspan x="27">已</tspan><tspan x="45">结</tspan><tspan x="63">束</tspan></text><text y="775" fill="#b0b0ae" font-weight="400"><tspan x="27">~</tspan><tspan x="36">/</tspan><tspan x="45">B</tspan><tspan x="54">O</tspan><tspan x="63">N</tspan><tspan x="72">E</tspan></text><text y="35" fill="#efefec" font-weight="600"><tspan x="261">修</tspan><tspan x="279">复</tspan><tspan x="297">会</tspan><tspan x="315">话</tspan><tspan x="333">切</tspan><tspan x="351">换</tspan><tspan x="369">后</tspan><tspan x="387">的</tspan><tspan x="405">草</tspan><tspan x="423">稿</tspan><tspan x="441">恢</tspan><tspan x="459">复</tspan></text><rect x="243" y="80" width="783" height="40" fill="#2c2c2c"/><text y="95" fill="#888888" font-weight="400"><tspan x="243">│</tspan></text><text y="115" fill="#888888" font-weight="400"><tspan x="243">│</tspan></text><text y="95" fill="#efefec" font-weight="400"><tspan x="261">切</tspan><tspan x="279">换</tspan><tspan x="297">会</tspan><tspan x="315">话</tspan><tspan x="333">时</tspan><tspan x="351">保</tspan><tspan x="369">留</tspan><tspan x="387">新</tspan><tspan x="405">草</tspan><tspan x="423">稿</tspan><tspan x="441">，</tspan><tspan x="459">补</tspan><tspan x="477">上</tspan><tspan x="495">回</tspan><tspan x="513">归</tspan><tspan x="531">测</tspan><tspan x="549">试</tspan><tspan x="567">。</tspan></text><text y="155" fill="#efefec" font-weight="400"><tspan x="261">问</tspan><tspan x="279">题</tspan><tspan x="297">出</tspan><tspan x="315">在</tspan><tspan x="333">提</tspan><tspan x="351">交</tspan><tspan x="369">回</tspan><tspan x="387">执</tspan><tspan x="405">：</tspan><tspan x="423">它</tspan><tspan x="441">清</tspan><tspan x="459">空</tspan><tspan x="477">了</tspan><tspan x="495">用</tspan><tspan x="513">户</tspan><tspan x="531">后</tspan><tspan x="549">来</tspan><tspan x="567">写</tspan><tspan x="585">下</tspan><tspan x="603">的</tspan><tspan x="621">内</tspan><tspan x="639">容</tspan><tspan x="657">。</tspan></text><text y="175" fill="#efefec" font-weight="400"><tspan x="261">只</tspan><tspan x="279">在</tspan><tspan x="297">版</tspan><tspan x="315">本</tspan><tspan x="333">匹</tspan><tspan x="351">配</tspan><tspan x="369">时</tspan><tspan x="387">清</tspan><tspan x="405">空</tspan><tspan x="423">输</tspan><tspan x="441">入</tspan><tspan x="459">，</tspan><tspan x="477">就</tspan><tspan x="495">能</tspan><tspan x="513">保</tspan><tspan x="531">留</tspan><tspan x="549">后</tspan><tspan x="567">续</tspan><tspan x="585">编</tspan><tspan x="603">辑</tspan><tspan x="621">。</tspan></text><text y="215" fill="#b0b0ae" font-weight="400"><tspan x="261">✓</tspan><tspan x="270"> </tspan><tspan x="279">已</tspan><tspan x="297">读</tspan><tspan x="315">取</tspan><tspan x="333"> </tspan><tspan x="342">2</tspan><tspan x="351"> </tspan><tspan x="360">个</tspan><tspan x="378">文</tspan><tspan x="396">件</tspan></text><text y="215" fill="#b8c7e4" font-weight="400"><tspan x="459">展</tspan><tspan x="477">开</tspan></text><text y="255" fill="#b0b0ae" font-weight="400"><tspan x="261">s</tspan><tspan x="270">t</tspan><tspan x="279">a</tspan><tspan x="288">t</tspan><tspan x="297">e</tspan><tspan x="306">/</tspan><tspan x="315">u</tspan><tspan x="324">p</tspan><tspan x="333">d</tspan><tspan x="342">a</tspan><tspan x="351">t</tspan><tspan x="360">e</tspan><tspan x="369">.</tspan><tspan x="378">r</tspan><tspan x="387">s</tspan></text><text y="255" fill="#888888" font-weight="400"><tspan x="432">·</tspan><tspan x="441"> </tspan><tspan x="450">r</tspan><tspan x="459">u</tspan><tspan x="468">s</tspan><tspan x="477">t</tspan></text><text y="295" fill="#b8c7e4" font-weight="400"><tspan x="279">i</tspan><tspan x="288">f</tspan></text><text y="295" fill="#efefec" font-weight="400"><tspan x="306">r</tspan><tspan x="315">e</tspan><tspan x="324">c</tspan><tspan x="333">e</tspan><tspan x="342">i</tspan><tspan x="351">p</tspan><tspan x="360">t</tspan><tspan x="369">.</tspan><tspan x="378">r</tspan><tspan x="387">e</tspan><tspan x="396">v</tspan><tspan x="405">i</tspan><tspan x="414">s</tspan><tspan x="423">i</tspan><tspan x="432">o</tspan><tspan x="441">n</tspan><tspan x="450"> </tspan><tspan x="459">=</tspan><tspan x="468">=</tspan><tspan x="477"> </tspan><tspan x="486">d</tspan><tspan x="495">r</tspan><tspan x="504">a</tspan><tspan x="513">f</tspan><tspan x="522">t</tspan><tspan x="531">.</tspan><tspan x="540">r</tspan><tspan x="549">e</tspan><tspan x="558">v</tspan><tspan x="567">i</tspan><tspan x="576">s</tspan><tspan x="585">i</tspan><tspan x="594">o</tspan><tspan x="603">n</tspan><tspan x="612"> </tspan><tspan x="621">{</tspan></text><text y="315" fill="#efefec" font-weight="400"><tspan x="315">d</tspan><tspan x="324">r</tspan><tspan x="333">a</tspan><tspan x="342">f</tspan><tspan x="351">t</tspan><tspan x="360">.</tspan><tspan x="369">c</tspan><tspan x="378">l</tspan><tspan x="387">e</tspan><tspan x="396">a</tspan><tspan x="405">r</tspan><tspan x="414">(</tspan><tspan x="423">)</tspan><tspan x="432">;</tspan></text><text y="335" fill="#efefec" font-weight="400"><tspan x="279">}</tspan></text><text y="375" fill="#efefec" font-weight="400"><tspan x="261">•</tspan><tspan x="270"> </tspan><tspan x="279">提</tspan><tspan x="297">交</tspan><tspan x="315">回</tspan><tspan x="333">执</tspan><tspan x="351">只</tspan><tspan x="369">清</tspan><tspan x="387">理</tspan><tspan x="405">对</tspan><tspan x="423">应</tspan><tspan x="441">版</tspan><tspan x="459">本</tspan><tspan x="477">。</tspan></text><text y="395" fill="#efefec" font-weight="400"><tspan x="261">•</tspan><tspan x="270"> </tspan><tspan x="279">新</tspan><tspan x="297">草</tspan><tspan x="315">稿</tspan><tspan x="333">与</tspan><tspan x="351">阅</tspan><tspan x="369">读</tspan><tspan x="387">位</tspan><tspan x="405">置</tspan><tspan x="423">仍</tspan><tspan x="441">属</tspan><tspan x="459">于</tspan><tspan x="477">各</tspan><tspan x="495">自</tspan><tspan x="513">会</tspan><tspan x="531">话</tspan><tspan x="549">。</tspan></text><rect x="243" y="440" width="783" height="40" fill="#2c2c2c"/><text y="455" fill="#888888" font-weight="400"><tspan x="243">│</tspan></text><text y="475" fill="#888888" font-weight="400"><tspan x="243">│</tspan></text><text y="455" fill="#efefec" font-weight="400"><tspan x="261">还</tspan><tspan x="279">要</tspan><tspan x="297">覆</tspan><tspan x="315">盖</tspan><tspan x="333">快</tspan><tspan x="351">速</tspan><tspan x="369">切</tspan><tspan x="387">换</tspan><tspan x="405">，</tspan><tspan x="423">以</tspan><tspan x="441">及</tspan><tspan x="459">提</tspan><tspan x="477">交</tspan><tspan x="495">后</tspan><tspan x="513">继</tspan><tspan x="531">续</tspan><tspan x="549">输</tspan><tspan x="567">入</tspan><tspan x="585">的</tspan><tspan x="603">情</tspan><tspan x="621">况</tspan><tspan x="639">。</tspan></text><text y="515" fill="#efefec" font-weight="400"><tspan x="261">已</tspan><tspan x="279">补</tspan><tspan x="297">上</tspan><tspan x="315">两</tspan><tspan x="333">个</tspan><tspan x="351">回</tspan><tspan x="369">归</tspan><tspan x="387">场</tspan><tspan x="405">景</tspan><tspan x="423">，</tspan><tspan x="441">正</tspan><tspan x="459">在</tspan><tspan x="477">验</tspan><tspan x="495">证</tspan><tspan x="513">草</tspan><tspan x="531">稿</tspan><tspan x="549">隔</tspan><tspan x="567">离</tspan><tspan x="585">。</tspan></text><text y="555" fill="#b8c7e4" font-weight="400"><tspan x="261">◌</tspan><tspan x="270"> </tspan><tspan x="279">运</tspan><tspan x="297">行</tspan><tspan x="315">回</tspan><tspan x="333">归</tspan><tspan x="351">测</tspan><tspan x="369">试</tspan></text><text y="555" fill="#b0b0ae" font-weight="400"><tspan x="423">·</tspan><tspan x="432"> </tspan><tspan x="441">4</tspan><tspan x="450"> </tspan><tspan x="459">/</tspan><tspan x="468"> </tspan><tspan x="477">6</tspan><tspan x="486"> </tspan><tspan x="495">通</tspan><tspan x="513">过</tspan></text><text y="595" fill="#b8c7e4" font-weight="400"><tspan x="261">›</tspan><tspan x="270"> </tspan><tspan x="279">查</tspan><tspan x="297">看</tspan><tspan x="315">草</tspan><tspan x="333">稿</tspan><tspan x="351">恢</tspan><tspan x="369">复</tspan><tspan x="387">任</tspan><tspan x="405">务</tspan></text><text y="695" fill="#b8c7e4" font-weight="600"><tspan x="243">›</tspan></text><text y="695" fill="#b0b0ae" font-weight="400"><tspan x="261">输</tspan><tspan x="279">入</tspan><tspan x="297">下</tspan><tspan x="315">一</tspan><tspan x="333">步</tspan><tspan x="351">要</tspan><tspan x="369">求</tspan><tspan x="387">…</tspan></text><text y="715" fill="#b0b0ae" font-weight="400"></text><text y="695" fill="#efefec" font-weight="400"><tspan x="261">▏</tspan></text><text y="755" fill="#b0b0ae" font-weight="400"><tspan x="261">W</tspan><tspan x="270">o</tspan><tspan x="279">r</tspan><tspan x="288">k</tspan><tspan x="297">e</tspan><tspan x="306">r</tspan><tspan x="315"> </tspan><tspan x="324">·</tspan><tspan x="333"> </tspan><tspan x="342">G</tspan><tspan x="351">P</tspan><tspan x="360">T</tspan><tspan x="369">-</tspan><tspan x="378">5</tspan><tspan x="387">.</tspan><tspan x="396">5</tspan></text><text y="755" fill="#b0b0ae" font-weight="400"><tspan x="567">e</tspan><tspan x="576">n</tspan><tspan x="585">t</tspan><tspan x="594">e</tspan><tspan x="603">r</tspan><tspan x="612"> </tspan><tspan x="621">发</tspan><tspan x="639">送</tspan><tspan x="657"> </tspan><tspan x="666"> </tspan><tspan x="675">a</tspan><tspan x="684">l</tspan><tspan x="693">t</tspan><tspan x="702">+</tspan><tspan x="711">e</tspan><tspan x="720">n</tspan><tspan x="729">t</tspan><tspan x="738">e</tspan><tspan x="747">r</tspan><tspan x="756"> </tspan><tspan x="765">换</tspan><tspan x="783">行</tspan><tspan x="801"> </tspan><tspan x="810"> </tspan><tspan x="819">/</tspan><tspan x="828"> </tspan><tspan x="837">命</tspan><tspan x="855">令</tspan></text><text y="795" fill="#b0b0ae" font-weight="400"><tspan x="936">e</tspan><tspan x="945">s</tspan><tspan x="954">c</tspan><tspan x="963"> </tspan><tspan x="972">停</tspan><tspan x="990">止</tspan></text></g></svg>