<svg xmlns="http://www.w3.org/2000/svg" width="1440" height="800" viewBox="0 0 1440 800" role="img"><title>BONE · B 完整设计</title><g font-family="SFMono-Regular,Menlo,PingFang SC,monospace" font-size="14"><rect x="0" y="0" width="1440" height="800" fill="#101010"/><rect x="0" y="0" width="216" height="800" fill="#080808"/><rect x="27" y="20" width="18" height="20" fill="#ff9d24"/><text y="35" fill="#080808" font-weight="600"><tspan x="27">B</tspan></text><text y="35" fill="#ff9d24" font-weight="600"><tspan x="54">B</tspan><tspan x="63">O</tspan><tspan x="72">N</tspan><tspan x="81">E</tspan></text><text y="75" fill="#f5f5f5" font-weight="600"><tspan x="27">会</tspan><tspan x="45">话</tspan></text><text y="75" fill="#999999" font-weight="400"><tspan x="180">0</tspan><tspan x="189">6</tspan></text><rect x="9" y="100" width="198" height="40" fill="#402711"/><text y="115" fill="#ff9d24" font-weight="400"><tspan x="9">│</tspan></text><text y="135" fill="#ff9d24" font-weight="400"><tspan x="9">│</tspan></text><text y="115" fill="#f5f5f5" font-weight="600"><tspan x="27">草</tspan><tspan x="45">稿</tspan><tspan x="63">恢</tspan><tspan x="81">复</tspan></text><text y="135" fill="#ff667a" font-weight="400"><tspan x="27">×</tspan></text><text y="135" fill="#ff667a" font-weight="400"><tspan x="45">执</tspan><tspan x="63">行</tspan><tspan x="81">失</tspan><tspan x="99">败</tspan></text><text y="175" fill="#f5f5f5" font-weight="400"><tspan x="27">C</tspan><tspan x="36">o</tspan><tspan x="45">n</tspan><tspan x="54">t</tspan><tspan x="63">e</tspan><tspan x="72">x</tspan><tspan x="81">t</tspan><tspan x="90"> </tspan><tspan x="99">e</tspan><tspan x="108">n</tspan><tspan x="117">g</tspan><tspan x="126">i</tspan><tspan x="135">n</tspan><tspan x="144">e</tspan></text><text y="195" fill="#ff9d24" font-weight="400"><tspan x="27">?</tspan></text><text y="195" fill="#ff9d24" font-weight="400"><tspan x="45">需</tspan><tspan x="63">要</tspan><tspan x="81">回</tspan><tspan x="99">答</tspan></text><text y="235" fill="#f5f5f5" font-weight="400"><tspan x="27">修</tspan><tspan x="45">复</tspan><tspan x="63">启</tspan><tspan x="81">动</tspan><tspan x="99">错</tspan><tspan x="117">误</tspan></text><text y="255" fill="#ca8cff" font-weight="400"><tspan x="27">✎</tspan></text><text y="255" fill="#ca8cff" font-weight="400"><tspan x="45">草</tspan><tspan x="63">稿</tspan></text><text y="295" fill="#f5f5f5" font-weight="400"><tspan x="27">A</tspan><tspan x="36">P</tspan><tspan x="45">I</tspan><tspan x="54"> </tspan><tspan x="63">超</tspan><tspan x="81">时</tspan><tspan x="99">处</tspan><tspan x="117">理</tspan></text><text y="315" fill="#51d6e8" font-weight="400"><tspan x="27">○</tspan></text><text y="315" fill="#51d6e8" font-weight="400"><tspan x="45">就</tspan><tspan x="63">绪</tspan></text><text y="355" fill="#f5f5f5" font-weight="400"><tspan x="27">工</tspan><tspan x="45">具</tspan><tspan x="63">权</tspan><tspan x="81">限</tspan></text><text y="375" fill="#51d6e8" font-weight="400"><tspan x="27">○</tspan></text><text y="375" fill="#51d6e8" font-weight="400"><tspan x="45">就</tspan><tspan x="63">绪</tspan></text><text y="415" fill="#f5f5f5" font-weight="400"><tspan x="27">会</tspan><tspan x="45">话</tspan><tspan x="63">存</tspan><tspan x="81">储</tspan></text><text y="435" fill="#51d6e8" font-weight="400"><tspan x="27">○</tspan></text><text y="435" fill="#51d6e8" font-weight="400"><tspan x="45">就</tspan><tspan x="63">绪</tspan></text><text y="755" fill="#999999" font-weight="400"><tspan x="27">工</tspan><tspan x="45">作</tspan><tspan x="63">目</tspan><tspan x="81">录</tspan></text><text y="775" fill="#51d6e8" font-weight="400"><tspan x="27">~</tspan><tspan x="36">/</tspan><tspan x="45">B</tspan><tspan x="54">O</tspan><tspan x="63">N</tspan><tspan x="72">E</tspan></text><rect x="1080" y="0" width="360" height="800" fill="#080808"/><text y="35" fill="#f5f5f5" font-weight="600"><tspan x="270">修</tspan><tspan x="288">复</tspan><tspan x="306">会</tspan><tspan x="324">话</tspan><tspan x="342">切</tspan><tspan x="360">换</tspan><tspan x="378">后</tspan><tspan x="396">的</tspan><tspan x="414">草</tspan><tspan x="432">稿</tspan><tspan x="450">恢</tspan><tspan x="468">复</tspan></text><rect x="252" y="80" width="756" height="60" fill="#1c1c1c"/><text y="115" fill="#999999" font-weight="400"><tspan x="261">│</tspan></text><text y="115" fill="#f5f5f5" font-weight="400"><tspan x="288">执</tspan><tspan x="306">行</tspan><tspan x="324">回</tspan><tspan x="342">归</tspan><tspan x="360">测</tspan><tspan x="378">试</tspan><tspan x="396">，</tspan><tspan x="414">并</tspan><tspan x="432">报</tspan><tspan x="450">告</tspan><tspan x="468">结</tspan><tspan x="486">果</tspan><tspan x="504">。</tspan></text><text y="195" fill="#ff667a" font-weight="600"><tspan x="270">×</tspan><tspan x="279"> </tspan><tspan x="288">测</tspan><tspan x="306">试</tspan><tspan x="324">未</tspan><tspan x="342">能</tspan><tspan x="360">运</tspan><tspan x="378">行</tspan></text><text y="255" fill="#ff667a" font-weight="400"><tspan x="270">e</tspan><tspan x="279">r</tspan><tspan x="288">r</tspan><tspan x="297">o</tspan><tspan x="306">r</tspan><tspan x="315">:</tspan><tspan x="324"> </tspan><tspan x="333">f</tspan><tspan x="342">a</tspan><tspan x="351">i</tspan><tspan x="360">l</tspan><tspan x="369">e</tspan><tspan x="378">d</tspan><tspan x="387"> </tspan><tspan x="396">t</tspan><tspan x="405">o</tspan><tspan x="414"> </tspan><tspan x="423">d</tspan><tspan x="432">o</tspan><tspan x="441">w</tspan><tspan x="450">n</tspan><tspan x="459">l</tspan><tspan x="468">o</tspan><tspan x="477">a</tspan><tspan x="486">d</tspan><tspan x="495"> </tspan><tspan x="504">d</tspan><tspan x="513">e</tspan><tspan x="522">p</tspan><tspan x="531">e</tspan><tspan x="540">n</tspan><tspan x="549">d</tspan><tspan x="558">e</tspan><tspan x="567">n</tspan><tspan x="576">c</tspan><tspan x="585">y</tspan></text><text y="275" fill="#c2c2c2" font-weight="400"><tspan x="270">n</tspan><tspan x="279">e</tspan><tspan x="288">t</tspan><tspan x="297">w</tspan><tspan x="306">o</tspan><tspan x="315">r</tspan><tspan x="324">k</tspan><tspan x="333"> </tspan><tspan x="342">r</tspan><tspan x="351">e</tspan><tspan x="360">q</tspan><tspan x="369">u</tspan><tspan x="378">e</tspan><tspan x="387">s</tspan><tspan x="396">t</tspan><tspan x="405"> </tspan><tspan x="414">t</tspan><tspan x="423">i</tspan><tspan x="432">m</tspan><tspan x="441">e</tspan><tspan x="450">d</tspan><tspan x="459"> </tspan><tspan x="468">o</tspan><tspan x="477">u</tspan><tspan x="486">t</tspan></text><text y="355" fill="#f5f5f5" font-weight="400"><tspan x="270">这</tspan><tspan x="288">次</tspan><tspan x="306">没</tspan><tspan x="324">有</tspan><tspan x="342">测</tspan><tspan x="360">试</tspan><tspan x="378">结</tspan><tspan x="396">果</tspan><tspan x="414">，</tspan><tspan x="432">不</tspan><tspan x="450">能</tspan><tspan x="468">据</tspan><tspan x="486">此</tspan><tspan x="504">判</tspan><tspan x="522">断</tspan><tspan x="540">修</tspan><tspan x="558">改</tspan><tspan x="576">通</tspan><tspan x="594">过</tspan><tspan x="612">。</tspan></text><text y="435" fill="#ff9d24" font-weight="400"><tspan x="270">将</tspan><tspan x="288">重</tspan><tspan x="306">试</tspan><tspan x="324">要</tspan><tspan x="342">求</tspan><tspan x="360">放</tspan><tspan x="378">入</tspan><tspan x="396">输</tspan><tspan x="414">入</tspan><tspan x="432">区</tspan></text><a href="20-retry-draft.svg" aria-label="准备重试草稿"><title>准备重试草稿</title><rect x="270" y="420" width="252" height="20" fill="transparent"/></a><text y="655" fill="#ff9d24" font-weight="400"><tspan x="270">◌</tspan><tspan x="279"> </tspan><tspan x="288">网</tspan><tspan x="306">络</tspan><tspan x="324">请</tspan><tspan x="342">求</tspan><tspan x="360">超</tspan><tspan x="378">时</tspan></text><rect x="252" y="680" width="756" height="60" fill="#252525"/><text y="715" fill="#ff9d24" font-weight="600"><tspan x="270">›</tspan></text><text y="715" fill="#c2c2c2" font-weight="400"><tspan x="288">继</tspan><tspan x="306">续</tspan><tspan x="324">补</tspan><tspan x="342">充</tspan><tspan x="360">要</tspan><tspan x="378">求</tspan><tspan x="396">…</tspan></text><rect x="288" y="700" width="9" height="20" fill="#ff9d24"/><text y="755" fill="#c2c2c2" font-weight="400"><tspan x="288">W</tspan><tspan x="297">o</tspan><tspan x="306">r</tspan><tspan x="315">k</tspan><tspan x="324">e</tspan><tspan x="333">r</tspan><tspan x="342"> </tspan><tspan x="351">·</tspan><tspan x="360"> </tspan><tspan x="369">G</tspan><tspan x="378">P</tspan><tspan x="387">T</tspan><tspan x="396">-</tspan><tspan x="405">5</tspan><tspan x="414">.</tspan><tspan x="423">5</tspan></text><text y="755" fill="#c2c2c2" font-weight="400"><tspan x="504">/</tspan><tspan x="513"> </tspan><tspan x="522">命</tspan><tspan x="540">令</tspan></text><text y="755" fill="#999999" font-weight="400"><tspan x="603">a</tspan><tspan x="612">l</tspan><tspan x="621">t</tspan><tspan x="630">+</tspan><tspan x="639">e</tspan><tspan x="648">n</tspan><tspan x="657">t</tspan><tspan x="666">e</tspan><tspan x="675">r</tspan><tspan x="684"> </tspan><tspan x="693">换</tspan><tspan x="711">行</tspan></text><text y="755" fill="#ff9d24" font-weight="400"><tspan x="900">e</tspan><tspan x="909">n</tspan><tspan x="918">t</tspan><tspan x="927">e</tspan><tspan x="936">r</tspan><tspan x="945"> </tspan><tspan x="954">提</tspan><tspan x="972">交</tspan></text></g></svg>