<svg xmlns="http://www.w3.org/2000/svg" width="360" height="240" viewBox="0 0 360 240" role="img"><title>BONE · B 完整设计</title><g font-family="SFMono-Regular,Menlo,PingFang SC,monospace" font-size="14"><rect x="0" y="0" width="360" height="240" fill="#101010"/><text y="15" fill="#f5f5f5" font-weight="600"><tspan x="27">命</tspan><tspan x="45">令</tspan></text><text y="75" fill="#f5f5f5" font-weight="400"><tspan x="27">/</tspan><tspan x="36">n</tspan><tspan x="45">e</tspan><tspan x="54">w</tspan></text><a href="06-new.svg" aria-label="窄屏/new"><title>窄屏/new</title><rect x="18" y="60" width="315" height="20" fill="transparent"/></a><text y="95" fill="#f5f5f5" font-weight="400"><tspan x="27">/</tspan><tspan x="36">s</tspan><tspan x="45">e</tspan><tspan x="54">s</tspan><tspan x="63">s</tspan><tspan x="72">i</tspan><tspan x="81">o</tspan><tspan x="90">n</tspan><tspan x="99">s</tspan></text><a href="17-sessions.svg" aria-label="窄屏/sessions"><title>窄屏/sessions</title><rect x="18" y="80" width="315" height="20" fill="transparent"/></a><text y="115" fill="#f5f5f5" font-weight="400"><tspan x="27">/</tspan><tspan x="36">h</tspan><tspan x="45">e</tspan><tspan x="54">l</tspan><tspan x="63">p</tspan></text><a href="18-help.svg" aria-label="窄屏/help"><title>窄屏/help</title><rect x="18" y="100" width="315" height="20" fill="transparent"/></a><text y="195" fill="#c2c2c2" font-weight="400"><tspan x="27">↑</tspan><tspan x="36">↓</tspan><tspan x="45"> </tspan><tspan x="54">选</tspan><tspan x="72">择</tspan><tspan x="90"> </tspan><tspan x="99"> </tspan><tspan x="108"> </tspan><tspan x="117">e</tspan><tspan x="126">n</tspan><tspan x="135">t</tspan><tspan x="144">e</tspan><tspan x="153">r</tspan><tspan x="162"> </tspan><tspan x="171">确</tspan><tspan x="189">定</tspan></text><text y="235" fill="#ff9d24" font-weight="400"><tspan x="27">e</tspan><tspan x="36">s</tspan><tspan x="45">c</tspan><tspan x="54"> </tspan><tspan x="63">返</tspan><tspan x="81">回</tspan><tspan x="99">输</tspan><tspan x="117">入</tspan></text><a href="24-minimum.svg" aria-label="返回40列输入"><title>返回40列输入</title><rect x="27" y="220" width="234" height="20" fill="transparent"/></a></g></svg>